<svg width="19" height="18" viewBox="0 0 19 18" fill="none" xmlns="http://www.w3.org/2000/svg">
<path d="M1.63672 13.2188H11.5982C11.8157 12.7226 12.3112 12.375 12.8867 12.375C13.4622 12.375 13.9578 12.7226 14.1752 13.2188H17.3867V14.3438H14.1752C13.9577 14.8399 13.4622 15.1875 12.8867 15.1875C12.3112 15.1875 11.8157 14.8399 11.5982 14.3438H1.63672" fill="#919191"/>
<path d="M1.63672 8.4375H4.84824C5.06572 7.94137 5.56125 7.59375 6.13672 7.59375C6.71219 7.59375 7.20775 7.94137 7.4252 8.4375H17.3867V9.5625H7.4252C7.20772 10.0586 6.71219 10.4062 6.13672 10.4062C5.56125 10.4062 5.06568 10.0586 4.84824 9.5625H1.63672" fill="#919191"/>
<path d="M1.63672 3.65625H11.5982C11.8157 3.16012 12.3112 2.8125 12.8867 2.8125C13.4622 2.8125 13.9578 3.16012 14.1752 3.65625H17.3867V4.78125H14.1752C13.9577 5.27738 13.4622 5.625 12.8867 5.625C12.3112 5.625 11.8157 5.27738 11.5982 4.78125H1.63672" fill="#919191"/>
</svg>
