<?xml version="1.0" encoding="utf-8"?>
<!-- Generator: Adobe Illustrator 23.0.3, SVG Export Plug-In . SVG Version: 6.00 Build 0)  -->
<svg version="1.1" id="e30de6f1-9543-4db9-940c-5f834e273f0a"
	 xmlns="http://www.w3.org/2000/svg" xmlns:xlink="http://www.w3.org/1999/xlink" x="0px" y="0px" viewBox="0 0 48 48"
	 style="enable-background:new 0 0 48 48;" xml:space="preserve">
<style type="text/css">
	.st0{fill:#006CFF;}
</style>
<path class="st0" d="M11.7,11.9c0.1-0.6,0.1-1,0.2-1.5c0-0.1,0-0.2-0.1-0.3c-0.1-0.1-0.3-0.2-0.3-0.3c-0.1-0.2,0-0.5,0.2-0.7
	c0.1,0,0.1,0,0.2-0.1C12.2,9,12.6,9,13,9.1c0.2,0,0.3,0.2,0.4,0.3c0.1,0.2,0,0.5-0.2,0.6c-0.1,0-0.1,0.1-0.2,0.1
	c-0.1,0-0.1,0.1-0.1,0.3c0.1,0.5,0.1,0.9,0.2,1.5c0.1-0.2,0.1-0.3,0.1-0.4c0.2-0.7,0.4-1.4,0.7-2c0-0.1,0.1-0.2,0.1-0.3
	c0-0.1,0.1-0.1,0.2-0.1c0.8,0.2,1.5,0.5,2.2,0.9c0.4,0.2,0.6,0.6,0.7,1c0.1,0.6,0.2,1.2,0.3,1.9c0.1,0.9,0.1,1.7,0.2,2.6
	c0,0.3,0,0.3,0.3,0.3h1c0.1,0,0.2-0.1,0.2-0.2s0-0.4,0-0.6c0-1.4,0.2-2.8,0.5-4.1c0.1-0.3,0.2-0.5,0.5-0.7c0.7-0.5,1.5-0.9,2.4-1.1
	c0.2-0.1,0.2,0.1,0.2,0.2c0.2,0.7,0.4,1.3,0.6,2c0.1,0.2,0.1,0.4,0.2,0.7c0.1-0.6,0.1-1,0.2-1.5c0-0.1,0-0.2-0.2-0.3
	C23.2,10,23,9.8,23,9.6c0-0.3,0.1-0.4,0.3-0.5c0.4-0.1,0.9-0.1,1.3,0c0.3,0.1,0.4,0.4,0.3,0.7c0,0.1-0.1,0.2-0.1,0.2
	c-0.1,0-0.1,0.1-0.2,0.1c-0.2,0.1-0.2,0.2-0.2,0.4c0.1,0.4,0.1,0.9,0.2,1.4c0.1-0.1,0.1-0.2,0.1-0.3c0.2-0.7,0.5-1.5,0.7-2.2
	C25.6,9,25.7,9,25.9,9.1c0.6,0.2,1.2,0.5,1.7,0.7c0.2,0.1,0.4,0.3,0.6,0.4c0.2,0.1,0.3,0.4,0.4,0.6c0.1,0.7,0.3,1.4,0.3,2
	c0.1,0.9,0.1,1.8,0.2,2.6c0,0.2,0.1,0.2,0.2,0.2h0.9c0.2,0,0.2,0,0.3-0.3c0-0.6,0-1.1,0.1-1.7c0.1-1,0.2-1.9,0.4-2.8
	c0.1-0.4,0.3-0.7,0.6-0.9c0.5-0.3,1-0.6,1.6-0.8C33.5,9.2,33.7,9.1,34,9l1,2.8l0,0c0.1-0.5,0.1-0.9,0.2-1.4c0-0.1,0-0.2-0.2-0.3
	c-0.1-0.1-0.3-0.2-0.3-0.3c-0.1-0.2,0-0.5,0.2-0.7c0.1,0,0.1,0,0.2-0.1c0.4-0.1,0.8-0.1,1.2,0c0.2,0,0.3,0.2,0.3,0.4
	c0.1,0.2,0,0.5-0.2,0.6l-0.2,0.1c-0.1,0-0.2,0.1-0.2,0.3c0,0,0,0,0,0c0.1,0.5,0.1,0.9,0.2,1.5c0.1-0.3,0.2-0.4,0.2-0.6
	c0.2-0.6,0.4-1.3,0.6-2C37.3,9,37.3,9,37.5,9.1c0.8,0.2,1.6,0.5,2.3,1c0.3,0.2,0.4,0.4,0.5,0.8c0.1,0.7,0.3,1.4,0.3,2.1
	s0.1,1.7,0.2,2.5c0,0.3,0,0.3,0.3,0.3h2.4c0.6,0,1.1,0.2,1.5,0.5c0.5,0.4,0.9,1,0.9,1.7c0,0.3,0,0.6,0,0.9v10.8c0,0.3,0,0.5-0.1,0.8
	c-0.3,1-1.2,1.7-2.2,1.7H31.9c-0.1,0-0.2,0-0.2-0.1c-0.4-0.5-0.8-0.9-1.3-1.3h0.5h12.6c0.6,0,1-0.4,1-1c0-0.1,0-0.2,0-0.3
	c0-3.7,0-7.3,0-11c0-0.1,0-0.2,0-0.3c0-0.6-0.4-1-1-1h-39c-0.6,0-1,0.4-1,1c0,0.1,0,0.2,0,0.3v11c0,0.1,0,0.1,0,0.2c0,0.6,0.4,1,1,1
	c0,0,0,0,0.1,0c1.4,0,2.9,0,4.3,0h8.7c0,0,0,0.1-0.1,0.1c-0.5,0.3-0.9,0.8-1.2,1.3C16.2,32,16.1,32,16,32c-0.1,0-0.1,0-0.2,0H4.6
	c-0.5,0-1.1-0.1-1.5-0.4c-0.6-0.4-1-1.1-1-1.9c0-1.2,0-2.4,0-3.7v-7.8c0-0.3,0-0.5,0.1-0.8c0.3-1,1.2-1.7,2.3-1.7h2.6
	c0.1,0,0.2,0,0.2-0.1c0,0,0,0,0,0v-0.2c0-1.4,0.2-2.8,0.4-4.1c0.1-0.6,0.5-1.1,1-1.3C9.3,9.5,10,9.2,10.7,9L11.7,11.9z"/>
<path class="st0" d="M24,45.6h-7.2c-0.9,0.1-1.7-0.6-1.8-1.5c0-0.1,0-0.2,0-0.2c0-0.7,0-1.4,0-2.2c0-1.5,0-3.1,0-4.6
	c0-0.4,0.1-0.7,0.3-1c0.3-0.5,0.8-0.8,1.3-0.8h14.6c0.9-0.1,1.7,0.6,1.8,1.5c0,0.1,0,0.1,0,0.2c0,0.7,0,1.4,0,2.2c0,1.6,0,3.1,0,4.7
	c0.1,0.9-0.6,1.7-1.5,1.8c-0.1,0-0.2,0-0.2,0L24,45.6L24,45.6z"/>
<path class="st0" d="M24.1,29.2c-0.6,0-1.3-0.2-1.8-0.7c-0.4-0.4-0.8-0.8-1.1-1.3c-0.1-0.2-0.2-0.3-0.4-0.4
	c-0.6-0.4-0.8-1.1-0.5-1.8c0-0.2,0.1-0.3,0.1-0.5c0-0.5,0-1,0.1-1.4c0.3-1.4,1.4-2.4,2.7-2.8c1.1-0.3,2.2,0,3,0.7
	c0.7,0.6,1.2,1.3,1.3,2.2c0.1,0.4,0.1,0.8,0.1,1.1c-0.1,0.2-0.1,0.4,0,0.6c0.3,0.6,0.1,1.4-0.5,1.7c-0.2,0.1-0.3,0.3-0.4,0.5
	c-0.4,0.8-1,1.4-1.7,1.8C24.7,29.1,24.4,29.2,24.1,29.2z"/>
<path class="st0" d="M24,34.5h-6.5c-0.5,0-0.5,0-0.4-0.4s0.1-0.6,0.2-0.9c0.1-0.5,0.3-0.9,0.8-1.1c0.7-0.5,1.4-0.9,2.2-1.1
	c0.1-0.1,0.3-0.1,0.4-0.1c0.2,0,0.4-0.2,0.5-0.4c0.2-0.3,0.6-0.6,1-0.5c1.1,0,2.3,0,3.4,0c0.4,0,0.8,0.2,1,0.5
	c0.1,0.2,0.3,0.3,0.5,0.4c0.9,0.3,1.8,0.7,2.6,1.3c0.4,0.3,0.8,0.7,0.9,1.2c0.1,0.3,0.1,0.7,0.2,1s0,0.3-0.2,0.3L24,34.5L24,34.5z"
	/>
<path class="st0" d="M14.9,5.2c0,0.2,0.1,0.4,0.1,0.6c0.1,0.4-0.1,0.8-0.4,1.1c-0.1,0.1-0.2,0.2-0.3,0.3c-0.2,0.4-0.6,0.7-0.9,1
	c-0.6,0.4-1.4,0.4-1.9,0c-0.4-0.3-0.7-0.6-0.9-1c-0.1-0.2-0.2-0.3-0.4-0.4C9.8,6.6,9.6,6.1,9.7,5.7c0.1-0.2,0.1-0.4,0.1-0.5
	c-0.1-1,0.4-1.9,1.3-2.5c1.2-0.7,2.7-0.4,3.4,0.8c0.1,0.2,0.2,0.4,0.2,0.5c0.1,0.2,0.1,0.4,0.1,0.6C14.9,4.8,14.9,5,14.9,5.2
	L14.9,5.2z"/>
<path class="st0" d="M26.5,5.2c0,0.2,0.1,0.4,0.1,0.6c0.1,0.4-0.1,0.8-0.4,1.1C26.1,7,26,7.1,25.9,7.3c-0.2,0.4-0.6,0.8-1,1.1
	c-0.5,0.3-1.2,0.3-1.8,0c-0.4-0.3-0.8-0.6-1-1.1C22,7.1,21.9,7,21.7,6.8c-0.3-0.2-0.5-0.7-0.4-1.1c0.1-0.2,0.1-0.3,0-0.5
	c-0.1-1,0.4-2,1.3-2.5c1.2-0.7,2.7-0.4,3.4,0.8c0.1,0.2,0.2,0.4,0.3,0.5c0.1,0.2,0.1,0.4,0.2,0.6C26.5,4.8,26.5,5,26.5,5.2L26.5,5.2
	z"/>
<path class="st0" d="M38.2,5.2l0.1,0.6c0.1,0.4-0.1,0.8-0.4,1c-0.2,0.1-0.3,0.3-0.4,0.4c-0.2,0.4-0.5,0.7-0.9,1
	c-0.6,0.4-1.3,0.4-1.9,0c-0.4-0.3-0.7-0.6-0.9-1c-0.1-0.1-0.2-0.3-0.3-0.4c-0.3-0.2-0.5-0.6-0.4-1c0.1-0.3,0.1-0.5,0.1-0.8
	c0-1.2,0.7-2.2,1.8-2.6c1.3-0.4,2.7,0.3,3.1,1.5c0.1,0.2,0.1,0.4,0.2,0.6C38.2,4.8,38.2,5,38.2,5.2L38.2,5.2z"/>
</svg>
