<?xml version="1.0" encoding="utf-8"?>
<!-- Generator: Adobe Illustrator 23.0.3, SVG Export Plug-In . SVG Version: 6.00 Build 0)  -->
<svg version="1.1" id="Layer_1" xmlns="http://www.w3.org/2000/svg" xmlns:xlink="http://www.w3.org/1999/xlink" x="0px" y="0px"
	 viewBox="0 0 48 48" style="enable-background:new 0 0 48 48;" xml:space="preserve">
<style type="text/css">
	.st0{fill:#006CFF;}
</style>
<path class="st0" d="M8.2,25.8c-1.2-0.8-2-2-2.4-3.3c-0.6-3,1.3-6,4.3-6.7c0.4,0,0.6-0.3,0.7-0.7C11.9,10,16.2,3.7,23.8,3
	c0.9-0.1,1.7-0.1,2.7-0.1c0,0.4,0,0.8,0,1.1c-0.1,1,0.3,2.1,1.2,2.7c0.8,0.6,1.7,1.1,2.6,1.7c0.9,0.6,1.8,1.2,2.6,1.9
	c1.6,1.4,2.5,3.5,2.5,5.7c0,0.5,0.1,0.6,0.6,0.7c3.6,0.7,6.4,3.6,7.1,7.2c0.5,2.9-0.6,5.9-2.9,7.9c-0.1,0.1-0.3,0.1-0.3,0.3
	c1.7,0.2,3.2,1,4.4,2.3c1.8,1.8,2.2,4.4,1.2,6.7c-0.9,2.4-3.2,4-5.8,4.1c-7.4,0.1-14.9,0-22.3,0h-4.9C6.7,45,2.1,40.4,2.2,34.7
	c0-0.1,0-0.1,0-0.2c0.2-3.6,2.2-6.8,5.5-8.5L8.2,25.8z M21.4,26.8h-6.9c-1-0.1-2.1-0.1-3.1,0c-4.5,0.4-7.8,4.4-7.4,8.9
	c0.1,0.9,0.3,1.9,0.7,2.7c1.2,3,4.2,4.9,7.4,4.8c4.6,0.1,9.1,0,13.7,0s9.1,0,13.6,0c2.3,0,4.1-1.7,4.4-4c0.3-2.2-1-4.3-3.1-5
	c-0.7-0.2-1.3-0.3-2-0.3c-3.2,0-6.3,0-9.5,0h-0.7v-2h0.6c1.7,0,3.4,0,5.1,0c3.8,0,6.8-3.1,6.8-6.8c0-0.5-0.1-1-0.2-1.5
	c-0.6-3.1-3.4-5.3-6.5-5.3c-2.4,0-4.9,0-7.3,0h-0.6v-1.9h6.8c0.3-2.1-0.6-4.1-2.3-5.3c-1.3-0.9-2.6-1.7-4-2.5
	c-1.3-0.8-2.2-2-2.4-3.5c0-0.1,0-0.2-0.1-0.3C18.7,5,12.7,10.5,12.6,15.7h7.2v1.8h-8.5c-2-0.1-3.6,1.4-3.8,3.3c0,0.1,0,0.2,0,0.3
	c-0.1,2,1.4,3.6,3.3,3.8c0.1,0,0.3,0,0.4,0h9.5h0.6V26.8z"/>
</svg>
