<?xml version="1.0" encoding="utf-8"?>
<!-- Generator: Adobe Illustrator 23.0.3, SVG Export Plug-In . SVG Version: 6.00 Build 0)  -->
<svg version="1.1" id="b1b2dffc-b4a6-4b31-aa11-8072b17ca22e"
	 xmlns="http://www.w3.org/2000/svg" xmlns:xlink="http://www.w3.org/1999/xlink" x="0px" y="0px" viewBox="0 0 48 48"
	 style="enable-background:new 0 0 48 48;" xml:space="preserve">
<style type="text/css">
	.st0{fill:#006CFF;}
</style>
<path class="st0" d="M24.2,29.8c0.1,0.2,0.1,0.4,0.2,0.6c0.6,1.3,2.1,1.9,3.4,1.3c0.3-0.1,0.5-0.3,0.7-0.5c0.3-0.3,0.6-0.6,0.9-1
	c0.8,0.4,1.5,0.8,2.2,1.2s0.8,0.2,1.2-0.4c0.3-0.6,0.7-1.1,1.1-1.7c0.1-0.1,0.3-0.1,0.4-0.1c1.9,0.5,3.8,1.1,5.8,1.7
	c0.1,0,0.2,0.1,0.3,0.3c0.6,1.6,0.6,3.3,0,4.9c-0.6,1.5-2,2.5-3.7,2.5c-3.1,0.1-6.2-0.4-9-1.7c-2.7-1.2-5.1-2.9-7.1-5
	c-1-1-2-2-2.9-3c-0.1-0.1-0.2-0.2-0.2-0.4c-0.1-1.3-0.5-2.6-1.2-3.8l1.6-1.4l-0.1-0.1l0.6,0.2c-0.4,0.8-0.4,1.8,0.1,2.6
	c0.5,0.8,1.4,1.2,2.3,1.2c0,0.9,0.3,1.7,1,2.2C22.5,30,23.4,30.1,24.2,29.8z"/>
<path class="st0" d="M17.3,30.5l5.3,5c-0.8,1.1-1.9,2.1-3.1,2.8c-0.4,0.2-0.8,0.3-1.2,0.3c-0.5,0.1-0.9-0.1-1.2-0.4
	c-2.3-2.3-4.6-4.6-6.9-6.9c-0.2-0.2-0.4-0.5-0.4-0.8c-0.2-2.2,0.5-4.4,1.9-6.1c0.6-0.8,1.3-1.4,2-2.1s1.4-1.7,2.1-2.5
	c0.4-0.5,0.7-0.6,1.2-0.1c-0.6,0.8-0.6,1.9-0.1,2.8c0,0.1,0,0.2-0.1,0.3c-0.4,0.4-0.8,0.8-1.2,1.2c-0.6,0.4-0.8,1.2-0.4,1.7
	c0,0.1,0.1,0.1,0.1,0.2c0.8,1.2,1,2.7,0.7,4.1c-0.1,0.4-0.3,0.9-0.6,1.3c-0.2,0.4-0.2,0.7,0.1,1c0.3,0.2,0.7,0.2,0.9,0
	c0,0,0.1-0.1,0.1-0.2C16.8,31.4,17,31,17.3,30.5z"/>
<path class="st0" d="M17.4,18.2c-0.2-0.1-0.5-0.2-0.7-0.2c-0.7-0.2-1.5,0.1-1.9,0.7c-0.7,1-1.5,2-2.5,2.8h-0.1
	c-1.3-2.2-2.6-4.3-2.9-6.9C9.1,13.3,9,12,9.2,10.7c0.2-2.2,2.1-3.9,4.4-3.9c1,0,2,0.1,2.9,0.5c0.1,0.1,0.2,0.2,0.3,0.3
	c0.6,1.9,1.1,3.8,1.7,5.8c0,0.2,0,0.3-0.1,0.4c-0.5,0.4-1.1,0.7-1.7,1.1c-0.7,0.4-0.8,0.6-0.4,1.2c0.2,0.5,0.5,1,0.8,1.5
	C17.2,17.8,17.3,18,17.4,18.2z"/>
<path class="st0" d="M18,41.1c-0.9,0.9-1.8,1.8-2.7,2.7c-0.5,0.5-1.3,0.5-1.8,0l-0.2-0.2l-8.7-8.7C4,34.5,3.8,33.6,4.3,33
	c0.1-0.1,0.2-0.2,0.3-0.3l2.6-2.6L18,41.1z"/>
<path class="st0" d="M29.3,3.8C37.5,4.1,44,10.8,44,19c0,0.5-0.3,0.9-0.8,0.8s-0.5-0.3-0.5-0.8c0-1.8-0.3-3.5-1-5.1
	c-1.9-4.8-6.4-8.2-11.5-8.7c-0.4,0-0.9,0-1.3-0.1c-0.4,0-0.7-0.3-0.8-0.7c0,0,0,0,0,0c0-0.4,0.3-0.7,0.7-0.7c0,0,0,0,0.1,0L29.3,3.8
	z"/>
<path class="st0" d="M29.2,8.8c5,0.2,9,4,9.7,8.9c0,0.4,0.1,0.8,0.1,1.2c0.1,0.4-0.2,0.7-0.6,0.8c0,0-0.1,0-0.1,0
	c-0.4,0-0.7-0.3-0.7-0.7c0,0,0,0,0-0.1c0-1.5-0.4-3-1.1-4.3c-1.5-2.7-4.4-4.5-7.5-4.5h-0.3c-0.4,0-0.7-0.3-0.7-0.7
	c0-0.4,0.3-0.7,0.7-0.7c0,0,0,0,0,0L29.2,8.8z"/>
<path class="st0" d="M22.1,27.2c0.1-0.3,0.2-0.5,0.4-0.7c0.8-0.8,1.6-1.7,2.5-2.5c0.5-0.4,1.3-0.4,1.8,0.2c0.4,0.5,0.4,1.2,0,1.6
	c-0.8,0.8-1.6,1.7-2.5,2.5c-0.4,0.4-0.9,0.5-1.4,0.3C22.4,28.3,22,27.8,22.1,27.2z"/>
<path class="st0" d="M19.4,24.5c0.1-0.3,0.2-0.5,0.4-0.7c0.8-0.8,1.6-1.6,2.5-2.5c0.5-0.5,1.3-0.5,1.8,0c0.5,0.5,0.5,1.3,0,1.8
	c-0.8,0.8-1.6,1.6-2.5,2.5c-0.4,0.4-0.9,0.5-1.4,0.3C19.6,25.6,19.3,25.1,19.4,24.5z"/>
<path class="st0" d="M34,18.7c0,0.2,0,0.3,0,0.4c0,0.4-0.3,0.6-0.7,0.7c-0.3,0-0.6-0.3-0.7-0.6c0-0.3,0-0.5-0.1-0.8
	c-0.3-1.8-1.8-3.1-3.6-3.2c-0.1,0-0.3,0-0.4-0.1c-0.3-0.1-0.5-0.4-0.4-0.7c0.1-0.4,0.4-0.6,0.8-0.5C31.6,13.9,33.8,16,34,18.7z"/>
<path class="st0" d="M20.3,18.3c0.5,0,1,0.3,1.3,0.7c0.2,0.4,0.2,1-0.2,1.3c-0.5,0.6-1,1.1-1.6,1.6c-0.5,0.4-1.2,0.4-1.7,0
	c-0.5-0.4-0.5-1.2-0.1-1.7c0,0,0,0,0,0c0.5-0.6,1.1-1.2,1.7-1.7C19.9,18.4,20.1,18.3,20.3,18.3z"/>
<path class="st0" d="M27.6,27.2c0.5,0,1,0.3,1.2,0.8c0.2,0.4,0.2,0.9-0.1,1.3c-0.4,0.4-0.7,0.8-1.1,1.1c-0.5,0.4-1.2,0.4-1.6-0.1
	c-0.5-0.4-0.5-1.1-0.1-1.6c0.4-0.4,0.8-0.9,1.2-1.2C27.2,27.3,27.4,27.3,27.6,27.2z"/>
</svg>
