<?xml version="1.0" encoding="utf-8"?>
<!-- Generator: Adobe Illustrator 23.0.3, SVG Export Plug-In . SVG Version: 6.00 Build 0)  -->
<svg version="1.1" id="Layer_1" xmlns="http://www.w3.org/2000/svg" xmlns:xlink="http://www.w3.org/1999/xlink" x="0px" y="0px"
	 viewBox="0 0 48 48" style="enable-background:new 0 0 48 48;" xml:space="preserve">
<style type="text/css">
	.st0{fill:#006CFF;}
</style>
<path class="st0" d="M29.4,28.8c0,2,0,4,0,5.9c0,0.6-0.5,0.8-1,1l-4.9,1c-0.5,0.1-0.9,0.1-1.4,0.2H5.9c-1,0-1.4-0.4-1.4-1.4V6.2
	c0-1,0.4-1.4,1.4-1.4H22c0.5,0,1,0.2,1.3,0.5c1.9,1.8,3.8,3.5,5.7,5.3c0.3,0.3,0.5,0.7,0.5,1.1c0,2.5,0,4.9,0,7.4
	c0,0.2-0.1,0.4-0.2,0.6c-0.3,0.6-0.6,1.1-0.8,1.6c-0.1,0.4-0.4,0.7-0.8,0.9c-0.4,0.2-0.8,0.4-1.2,0.5c-1.5,0.6-2.4,2.2-2.1,3.8
	c0.3,1.5,1.7,2.6,3.2,2.6C28.2,29.1,28.8,29,29.4,28.8z M9.4,28.4v6.4h3.7v-6.4L9.4,28.4z M14.2,28.4v6.4h3.7v-6.3L14.2,28.4z
	 M9.9,10.2V7H6.7v3.2L9.9,10.2z M6.7,12.3v3.2h3.2v-3.2H6.7z M6.7,20.9h3.2v-3.2H6.7V20.9z M6.7,26.3h3.2v-3.2H6.7V26.3z M12.1,7
	v3.2h3.2V7H12.1z M17.4,7v3.2h3.2V7H17.4z M15.2,12.4H12v3.2h3.2L15.2,12.4z M17.4,12.4v3.2h3.2v-3.2H17.4z M12,20.9h3.2v-3.2H12
	V20.9z M20.5,17.7h-3.2v3.2h3.2V17.7z M15.2,23.1h-3.2v3.1h3.2L15.2,23.1z M20.5,23.1h-3.2v3.1h3.2V23.1z"/>
<path class="st0" d="M32.9,23.3c0,0.1-0.1,0.1-0.1,0.2c-0.8,1.8-2.4,3.2-4.3,3.8L28,27.4c-0.8,0.3-1.7-0.2-2-1c-0.3-0.8,0.2-1.7,1-2
	l0,0c0.5-0.2,1.1-0.4,1.6-0.7c0.6-0.3,1.2-0.9,1.5-1.5c0.4-0.8,0.7-1.5,1.1-2.2c0.4-0.7,0.9-1.3,1.6-1.7c0.2-0.1,0.4-0.2,0.5-0.3
	c0.9-0.4,1-0.3,1.4,0.6l0.8,2.1c0.2-0.6,0.3-1.2,0.4-1.7c0-0.1-0.1-0.1-0.1-0.2c0-0.3,0-0.6,0-0.9h1c0,0.3,0,0.6,0,0.9
	c0,0.1-0.1,0.2-0.1,0.3c0.1,0.5,0.2,1,0.3,1.6c0.1-0.1,0.1-0.2,0.2-0.4c0.3-0.7,0.6-1.4,0.8-2.1c0.1-0.3,0.3-0.3,0.5-0.3
	c0.9,0.1,1.7,0.6,2.3,1.3c0.4,0.5,0.7,1.1,1,1.7c0.8,1.8,1.3,3.7,1.7,5.6c0.1,0.3,0.1,0.6,0.2,0.9c0.2,0.8-0.2,1.7-1.1,1.9
	c0,0,0,0,0,0c-0.9,0.2-1.7-0.4-1.9-1.2c0,0,0,0,0,0c-0.3-1.1-0.5-2.3-0.8-3.4c-0.1-0.3-0.2-0.7-0.3-1c-0.1,2-0.1,4.1,0.1,6.1
	c0.4,2.8,0.7,5.7,1,8.5c0.1,1,0.2,2,0.3,3c0.1,0.9-0.5,1.8-1.4,1.9c-0.9,0.1-1.8-0.5-1.9-1.4c0-0.1,0-0.1,0-0.2
	c-0.4-3.5-0.8-7-1.2-10.4c0-0.1,0-0.1-0.1-0.1c-0.1,0.9-0.2,1.8-0.3,2.7c-0.3,2.6-0.6,5.2-0.9,7.8c0,0.9-0.8,1.7-1.8,1.7
	c-0.8,0-1.4-0.6-1.6-1.3c-0.1-0.2-0.1-0.4,0-0.6c0.4-3.2,0.7-6.3,1.1-9.4C33.1,29,33.2,26.1,32.9,23.3z"/>
<path class="st0" d="M32.9,14.1c0-1.8,1.5-3.2,3.3-3.2c1.8,0,3.2,1.5,3.2,3.3s-1.5,3.2-3.3,3.2c0,0,0,0,0,0
	C34.3,17.3,32.9,15.9,32.9,14.1z"/>
</svg>
