<?xml version="1.0" encoding="utf-8"?>
<!-- Generator: Adobe Illustrator 23.0.3, SVG Export Plug-In . SVG Version: 6.00 Build 0)  -->
<svg version="1.1" id="Layer_1" xmlns="http://www.w3.org/2000/svg" xmlns:xlink="http://www.w3.org/1999/xlink" x="0px" y="0px"
	 viewBox="0 0 48 48" style="enable-background:new 0 0 48 48;" xml:space="preserve">
<style type="text/css">
	.st0{fill:#006CFF;}
</style>
<path class="st0" d="M28.5,34.8l2.2-2.2l-0.8-0.7c-0.2-0.1-0.3-0.4-0.1-0.5c0-0.1,0.1-0.1,0.1-0.1c1.1-1.1,2.3-2.2,3.4-3.4
	c0.3-0.3,0.5-0.2,0.7,0c0.6,0.6,1.2,1.2,1.8,1.8c0.1,0.1,0.3,0.2,0.4,0.2c2.9,0.2,5.2,2.5,5.4,5.4c0,0.2,0.1,0.3,0.2,0.4
	c0.6,0.7,1.3,1.3,2,2c0.3,0.3,0.3,0.5,0,0.7c-1.1,1.1-2.2,2.2-3.3,3.3c-0.3,0.3-0.5,0.3-0.7,0S39.2,41,38.9,41s-0.6,0.3-0.9,0.5
	c-1.2,0.7-2.3,1.5-3.5,2.2c-0.6,0.4-1.4,0.4-2,0c-2.4-1.5-4.7-3.2-6.9-5C18.6,33,12.4,26.5,7,19.3c-0.9-1.3-1.8-2.6-2.7-3.9
	c-0.4-0.6-0.4-1.4,0-2L7.1,9L6.3,8.3C6,8,6,7.8,6.3,7.6l3.4-3.4c0.2-0.2,0.4-0.2,0.6,0c0.6,0.6,1.2,1.2,1.8,1.8
	c0.2,0.1,0.4,0.2,0.6,0.3c2.8,0.2,5.1,2.5,5.3,5.3c0,0.3,0.1,0.5,0.3,0.7c0.6,0.6,1.2,1.2,1.8,1.8c0.2,0.2,0.3,0.4,0,0.7
	c-1.1,1.1-2.3,2.3-3.4,3.4c-0.2,0.3-0.4,0.2-0.7,0s-0.5-0.5-0.7-0.8l-2.2,2.2C17.8,25.1,22.9,30.2,28.5,34.8z M43,38l-9.5-9.5
	l-3.1,3l0.2,0.2c0.4,0.4,0.8,0.8,1.1,1.2c0.1,0.1,0,0.3,0,0.5c-0.2,0-0.3,0-0.5,0c-0.1,0-0.2-0.2-0.3-0.3l-2,2.1
	c-0.4,0.4-0.5,0.5-0.9,0.1c-2.3-2-4.6-4-6.9-6.1c-3.1-2.9-5.9-6-8.6-9.3c-0.3-0.3-0.3-0.5,0-0.8c0.5-0.5,1-1,1.6-1.6l0.6-0.6L13,15
	c-0.5-0.5-1-1-1.5-1.5c-0.1-0.1,0-0.3,0-0.5c0.2,0,0.3,0,0.5,0c0.1,0,0.1,0.1,0.2,0.2l3,3c0.4,0.4,0.8,0.8,1.1,1.2l3.1-3.1L10,4.9
	L6.9,8l0.2,0.2l1.1,1.1c0.2,0.2,0.3,0.3,0.1,0.5s-0.4,0.1-0.6,0C7.6,9.7,7.6,9.7,7.5,9.6L7.3,10c-0.8,1.2-1.5,2.5-2.3,3.7
	c-0.5,0.7-0.5,0.9,0,1.6c2.3,3.5,4.9,6.9,7.7,10.1c4.6,5.3,9.8,10.1,15.3,14.3c1.6,1.2,3.2,2.3,4.9,3.4c0.3,0.3,0.8,0.3,1.2,0.1
	l4-2.6l0.3-0.2l-3-3L35,37.1c-0.2-0.2-0.2-0.3-0.1-0.5s0.4-0.1,0.5,0l0.2,0.2l3.2,3.2l1.1,1.1L43,38z M13.2,7l4.1,4.1
	C17,9,15.3,7.3,13.2,7z M36.9,30.6l4,4C40.5,32.5,38.9,30.9,36.9,30.6z"/>
<path class="st0" d="M33.5,44.2c-0.4,0-0.8-0.1-1.2-0.4c-2.4-1.5-4.7-3.2-6.9-5c-7-5.6-13.3-12.2-18.7-19.4c-0.7-1-1.4-2-2.1-3.1
	l-0.6-0.8c-0.5-0.7-0.5-1.6,0-2.2L6.8,9L6.1,8.4C5.9,8.3,5.8,8.1,5.8,7.9c0-0.2,0.1-0.4,0.3-0.5L9.5,4C9.6,3.9,9.8,3.8,10,3.8l0,0
	c0.2,0,0.4,0.1,0.5,0.3c0.7,0.7,1.3,1.3,1.8,1.8C12.4,5.9,12.6,6,12.7,6c3,0.2,5.3,2.5,5.6,5.5c0,0.2,0.1,0.4,0.2,0.5
	c0.6,0.6,1.1,1.2,1.8,1.8c0.2,0.1,0.3,0.3,0.3,0.5c0,0.2-0.1,0.4-0.3,0.5c-1.1,1.1-2.3,2.3-3.4,3.4c-0.1,0.2-0.3,0.3-0.5,0.3
	c-0.2,0-0.4-0.1-0.5-0.3l-0.5-0.5l0,0l-1.9,1.9C18.1,25,23,30,28.5,34.5l1.9-1.9l-0.6-0.5c-0.2-0.1-0.3-0.3-0.3-0.5
	c0-0.2,0.1-0.4,0.3-0.5c1.1-1.1,2.3-2.2,3.4-3.4c0.1-0.2,0.3-0.2,0.5-0.3l0,0c0.2,0,0.4,0.1,0.5,0.3c0.6,0.6,1.2,1.2,1.8,1.8
	c0.1,0.1,0.2,0.1,0.3,0.1c3,0.2,5.4,2.6,5.6,5.6c0,0.1,0.1,0.2,0.2,0.3c0.7,0.7,1.3,1.4,1.9,1.9c0.2,0.1,0.3,0.3,0.3,0.5
	c0,0.2-0.1,0.4-0.3,0.5c-1.1,1.1-2.2,2.2-3.3,3.3c-0.1,0.2-0.3,0.3-0.5,0.3l0,0c-0.2,0-0.4-0.1-0.5-0.3l-0.2-0.2
	c-0.2-0.2-0.3-0.4-0.5-0.4c-0.2,0.1-0.3,0.1-0.5,0.3l-0.3,0.2l-1.3,0.8L34.7,44C34.3,44.2,33.9,44.3,33.5,44.2z M10,4.3
	c0,0-0.1,0-0.1,0.1C8.7,5.5,7.6,6.6,6.5,7.8C6.4,7.9,6.4,7.9,6.4,7.9s0,0.1,0.1,0.1l1,0.9l-2.9,4.7c-0.4,0.5-0.4,1.2,0,1.7l0.6,0.9
	c0.7,1,1.4,2,2.1,3c5.4,7.2,11.6,13.7,18.6,19.3c2.2,1.8,4.5,3.5,6.9,5c0.5,0.4,1.2,0.4,1.7,0l2.2-1.4c0.4-0.3,0.9-0.6,1.3-0.8
	l0.2-0.2c0.2-0.2,0.5-0.3,0.8-0.4c0.3,0.1,0.6,0.3,0.8,0.6c0,0.1,0.1,0.1,0.2,0.2c0.1,0.1,0.2,0.1,0.2,0.1l0,0c0,0,0.1,0,0.2-0.1
	c1.1-1.1,2.2-2.2,3.3-3.3c0.1-0.1,0.1-0.2,0.1-0.2s0-0.1-0.1-0.2c-0.6-0.6-1.3-1.2-2-2c-0.2-0.2-0.3-0.4-0.3-0.6
	c-0.2-2.8-2.4-5-5.2-5.2c-0.2,0-0.4-0.1-0.6-0.3c-0.6-0.6-1.2-1.2-1.8-1.8c-0.1-0.1-0.2-0.1-0.2-0.1l0,0c0,0-0.1,0-0.2,0.1
	c-1.1,1.1-2.2,2.3-3.4,3.4c-0.1,0-0.1,0.1-0.1,0.2c0,0,0,0.1,0.1,0.1l1,0.9l-2.6,2.6L28.3,35c-5.6-4.6-10.7-9.8-15.3-15.3l-0.1-0.2
	l2.5-2.5l0.4,0.4l0.5,0.6c0,0,0.1,0.1,0.1,0.1c0,0,0.1,0,0.1-0.1c1.1-1.1,2.3-2.3,3.4-3.4c0.1-0.1,0.1-0.1,0.1-0.1s0-0.1-0.1-0.2
	c-0.7-0.7-1.3-1.2-1.8-1.9c-0.2-0.2-0.3-0.5-0.4-0.8c-0.3-2.7-2.4-4.8-5.1-5c-0.3-0.1-0.5-0.2-0.7-0.4c-0.5-0.5-1.1-1.1-1.8-1.8
	C10,4.3,10,4.3,10,4.3z M33.6,43.6c-0.3,0-0.6-0.1-0.8-0.3c-0.5-0.4-1-0.7-1.5-1.1c-1.1-0.8-2.3-1.5-3.4-2.4
	c-5.6-4.3-10.8-9.1-15.4-14.4c-2.8-3.2-5.4-6.6-7.7-10.1c-0.5-0.5-0.5-1.4,0-1.9c0.5-0.8,1.1-1.7,1.6-2.6L7,9.8l0.2-0.2l0.2-0.4
	l0.3,0.2l0.2,0.1C8,9.7,8,9.7,8,9.7h0l0.1-0.1c0,0,0,0-0.1-0.1L6.9,8.3L6.8,8.2L6.6,8l0.1-0.2L10,4.6l9.8,9.8l-3.5,3.5l-0.5-0.5
	c-0.3-0.3-0.5-0.6-0.8-0.9c-0.7-0.7-1.5-1.5-2.2-2.2L12,13.4l-0.1-0.1l-0.1-0.1h-0.2v0.1c0.3,0.4,0.7,0.7,1.1,1.1l2.4,2.4l-0.4,0.4
	l-0.4,0.4L14,18c-0.4,0.4-0.8,0.8-1.1,1.1c-0.2,0.2-0.2,0.2,0,0.5c2.6,3.3,5.5,6.4,8.6,9.3c1.6,1.5,3.4,3.1,5,4.5l1.8,1.6
	c0.1,0.1,0.2,0.2,0.3,0.2c0.1-0.1,0.2-0.2,0.3-0.3l2.2-2.2l0.2,0.2l0.1,0.1c0,0,0.1,0.1,0.1,0.1c0.1,0,0.1,0,0.2,0c0,0,0-0.1,0-0.1
	c-0.2-0.3-0.5-0.5-0.8-0.8L30.5,32l-0.2-0.2l-0.2-0.2l0.1-0.2l3.2-3.2l9.8,9.8L40,41.4l-4.7-4.6c0,0-0.1-0.1-0.1-0.1l0,0h0
	c0,0,0,0.1,0.1,0.2l3.6,3.6l-0.3,0.3l-0.2,0.2l-4,2.6C34,43.5,33.8,43.6,33.6,43.6L33.6,43.6z M7.6,9.9l-0.1,0.1l-0.7,1.1
	c-0.5,0.9-1,1.7-1.6,2.6c-0.4,0.7-0.4,0.7,0,1.4c2.3,3.5,4.9,6.9,7.7,10.1c4.6,5.3,9.7,10.1,15.3,14.3c1.1,0.8,2.2,1.6,3.3,2.4
	l1.5,1.1c0.3,0.3,0.7,0.3,1,0.1l4-2.6h0.1l-3.2-3.2c-0.3-0.2-0.3-0.6-0.1-0.8c0.1-0.1,0.3-0.2,0.4-0.2l0,0c0.2,0,0.4,0.1,0.5,0.3
	l4.3,4.2l2.7-2.7l-9.1-9.1l-2.7,2.7l0,0l0.3,0.3c0.3,0.3,0.6,0.6,0.8,0.9c0.1,0.1,0.1,0.3,0.1,0.5c0,0,0,0.1,0,0.1v0.3h-0.4
	c-0.1,0-0.3,0-0.4,0c-0.1,0-0.2-0.1-0.2-0.1l-1.8,1.9c-0.5,0.5-0.7,0.6-1.3,0.1l-1.8-1.6c-1.7-1.5-3.4-3-5-4.5c-3.1-2.9-6-6-8.6-9.3
	c-0.3-0.3-0.3-0.7,0-1c0,0,0.1-0.1,0.1-0.1l1.1-1.1l0.4-0.4l0.4-0.4l0,0l-2-2c-0.4-0.4-0.8-0.8-1.1-1.1c-0.1-0.1-0.1-0.3-0.1-0.5
	c0,0,0-0.1,0-0.1v-0.3h0.4c0.1,0,0.3,0,0.4,0c0.1,0,0.2,0.1,0.3,0.2v0.1l0.8,0.8l2.2,2.2c0.3,0.3,0.6,0.6,0.8,0.9l0.1,0.1l2.7-2.7
	l-9-9.2L7.3,8l1.1,1.1C8.8,9.5,8.6,9.8,8.5,10c-0.1,0.1-0.3,0.2-0.4,0.2C7.9,10.2,7.7,10.1,7.6,9.9L7.6,9.9z M41.1,35.2l-4.9-4.9
	h0.7c2.2,0.3,3.8,2,4.2,4.2L41.1,35.2z M37.7,31l2.7,2.8C39.9,32.5,38.9,31.5,37.7,31z M17.6,11.7l-5.1-5.1l0.7,0.1
	c2.3,0.3,4.1,2.1,4.4,4.4L17.6,11.7z M14,7.4l3,3C16.5,9,15.4,7.9,14,7.4z"/>
<path class="st0" d="M28,20.4h-1.5c-1.5,0-2.7-1.2-2.7-2.7V9.5c0-1.4,1.1-2.6,2.5-2.7c0,0,0.1,0,0.1,0h14.9c1.4-0.1,2.6,1,2.6,2.4
	c0,0.1,0,0.1,0,0.2v8.2c0.1,1.5-1.1,2.7-2.5,2.8c-0.1,0-0.1,0-0.2,0c-2.9,0-5.8,0-8.6,0c-0.2,0-0.5,0.1-0.6,0.3
	c-1.1,1.1-2.2,2.2-3.3,3.3c-0.1,0.1-0.3,0.2-0.5,0.2c-0.1-0.2-0.2-0.3-0.2-0.5c0-1,0-1.9,0-2.8L28,20.4z M28.6,23.1l0.4-0.3
	c0.9-0.9,1.8-1.8,2.7-2.7c0.2-0.2,0.4-0.3,0.7-0.3h8.9c1.1,0.1,2-0.7,2.1-1.8c0-0.1,0-0.2,0-0.4c0-2.7,0-5.4,0-8.1
	c0.1-1-0.6-1.9-1.6-2.1c-0.2,0-0.3,0-0.5,0H27.4c-0.4,0-0.7,0-1.1,0c-1,0-1.9,0.8-1.9,1.8c0,0,0,0.1,0,0.1c0,2.8,0,5.5,0,8.3
	c-0.1,1.1,0.8,2,1.9,2.1c0.1,0,0.1,0,0.2,0h1.5c0.5,0,0.6,0.1,0.6,0.6L28.6,23.1z"/>
<path class="st0" d="M28.1,24.5L28,24.2l-0.1-0.1c-0.1-0.1-0.1-0.3-0.1-0.5c0-0.7,0-1.4,0-2.1v-0.9h-1.3c-1.6,0-2.9-1.3-2.9-2.9V9.5
	c0-1.6,1.2-2.9,2.8-2.9c0,0,0.1,0,0.1,0h14.9c1.5-0.1,2.8,1.1,2.9,2.7c0,0.1,0,0.1,0,0.2v8.2c0.1,1.6-1.2,2.9-2.8,3
	c-0.1,0-0.1,0-0.2,0h-8.6c-0.2,0-0.4,0.1-0.5,0.2c-1.1,1.1-2.2,2.2-3.3,3.3c-0.1,0.1-0.3,0.2-0.4,0.2l-0.1,0L28.1,24.5z M28,20.1
	h0.3v1.4c0,0.7,0,1.4,0,2.1c0,0.1,0,0.1,0.1,0.2c0.1,0,0.1,0,0.2-0.1c1.1-1.1,2.2-2.2,3.3-3.3c0.2-0.2,0.5-0.4,0.8-0.3h8.6
	c1.3,0.1,2.4-1,2.5-2.3c0-0.1,0-0.1,0-0.2V9.4c0.1-1.3-0.9-2.3-2.2-2.4c-0.1,0-0.2,0-0.2,0H26.5c-1.3-0.1-2.4,1-2.4,2.2
	c0,0.1,0,0.1,0,0.2v8.2c0,1.3,1.1,2.4,2.4,2.4H28z M28.4,23.7v-3.4c0-0.1,0-0.2,0-0.3h-1.8c-1.2,0.1-2.3-0.9-2.4-2.2
	c0-0.1,0-0.1,0-0.2c0-2.7,0-5.5,0-8.3c0-1.2,0.9-2.2,2.1-2.2c0,0,0,0,0.1,0c0.3,0,0.5,0,0.8,0h14.2c1.2-0.1,2.2,0.7,2.3,1.8
	c0,0.2,0,0.3,0,0.5v8.1c0.1,1.2-0.8,2.3-2,2.4c-0.1,0-0.2,0-0.3,0h-8.9c-0.2,0-0.4,0.1-0.5,0.2l-2,2l-0.7,0.7L29,23.1L28.4,23.7z
	 M26.8,7.7h-0.4c-0.9,0-1.6,0.7-1.7,1.6c0,0,0,0.1,0,0.1c0,2.8,0,5.5,0,8.3c-0.1,1,0.7,1.8,1.7,1.9c0.1,0,0.1,0,0.2,0h1.5
	c0.6,0,0.8,0.2,0.8,0.8v2.2l0.6-0.6c0.7-0.7,1.4-1.4,2-2c0.2-0.3,0.6-0.4,0.9-0.4h8.9c0.9,0.1,1.8-0.6,1.9-1.6c0-0.1,0-0.2,0-0.3
	V9.5c0.1-0.9-0.5-1.7-1.4-1.8c-0.2,0-0.3,0-0.5,0L26.8,7.7L26.8,7.7z"/>
<path class="st0" d="M33.8,11.9h6.6c0.1,0,0.2,0,0.3,0c0.1,0.1,0.3,0.2,0.3,0.3c0,0.1-0.1,0.2-0.3,0.3c-0.1,0-0.2,0-0.3,0H27
	c-0.2,0-0.5,0-0.5-0.3s0.2-0.3,0.5-0.3L33.8,11.9z"/>
<path class="st0" d="M40.6,12.7H27c-0.2,0-0.4,0-0.6-0.2c-0.1-0.1-0.2-0.3-0.1-0.4c0-0.4,0.2-0.6,0.7-0.6h13.5c0.1,0,0.3,0,0.4,0.1
	c0,0,0.5,0.2,0.4,0.5c-0.1,0.2-0.2,0.4-0.4,0.5C40.8,12.7,40.7,12.7,40.6,12.7z M40.4,12.2h0.2l0.1-0.1l-0.1-0.1H27
	c-0.1,0-0.2,0-0.2,0v0.1c0.1,0,0.1,0,0.2,0L40.4,12.2L40.4,12.2z"/>
<path class="st0" d="M33.9,17.5h-6.4c-0.1,0-0.2,0-0.3,0c-0.1-0.1-0.3-0.2-0.4-0.3c0.1-0.1,0.2-0.2,0.4-0.3c0.1,0,0.2,0,0.2,0h13
	c0.1,0,0.1,0,0.2,0s0.4,0.2,0.4,0.3s-0.2,0.3-0.4,0.3L33.9,17.5L33.9,17.5z"/>
<path class="st0" d="M27.3,17.8c-0.1,0-0.2,0-0.2-0.1c-0.1-0.1-0.2-0.1-0.3-0.2l-0.3-0.3l0.3-0.3c0.1-0.1,0.2-0.2,0.3-0.2
	c0.1-0.1,0.2-0.1,0.3,0h13c0.1,0,0.2,0,0.3,0l0.1,0.1c0.2,0.1,0.4,0.2,0.4,0.4c0,0.1,0,0.3-0.1,0.4c-0.1,0.1-0.3,0.2-0.5,0.2
	L27.3,17.8L27.3,17.8z M27.2,17.2l0.1,0.1l0,0h13.3h0.1c0,0-0.1,0-0.2,0l-0.1-0.1H27.3L27.2,17.2z"/>
<path class="st0" d="M31.2,15c-1.4,0-2.8,0-4.2,0c-0.2,0-0.4-0.1-0.5-0.3s0.1-0.4,0.4-0.4h8.4c0.1,0,0.2,0,0.3,0s0.3,0.2,0.3,0.3
	s-0.2,0.2-0.3,0.3s-0.2,0-0.3,0L31.2,15z"/>
<path class="st0" d="M35.5,15.3h-5.2c-1.1,0-2.2,0-3.3,0c-0.3,0-0.5-0.2-0.7-0.4c0-0.2,0-0.3,0.1-0.4c0.1-0.2,0.3-0.2,0.6-0.2h8.5
	c0.1,0,0.3,0,0.4,0.1c0.2,0.1,0.4,0.3,0.4,0.5s-0.2,0.4-0.4,0.5C35.7,15.3,35.6,15.3,35.5,15.3z M31.2,14.8h4.3l0.1-0.1l-0.1-0.1
	h-8.6c-0.1,0-0.1,0-0.2,0c0.1,0,0.2,0.1,0.2,0.1c1.1,0,2.2,0,3.3,0L31.2,14.8z"/>
<path class="st0" d="M36.4,10h-4c-0.2,0-0.5,0-0.5-0.3s0.3-0.3,0.5-0.3h8.1c0.2,0,0.5,0,0.5,0.3S40.8,10,40.6,10L36.4,10z"/>
<path class="st0" d="M40.5,10.2h-8.2c-0.2,0-0.7,0-0.7-0.6c0-0.1,0-0.3,0.1-0.4c0.2-0.1,0.4-0.2,0.6-0.2h8.1c0.2,0,0.4,0,0.6,0.2
	c0.1,0.1,0.2,0.3,0.1,0.4C41.2,10.2,40.7,10.2,40.5,10.2z M38.5,9.7h2c0.2,0,0.2,0,0.2,0V9.6c-0.1,0-0.1,0-0.2,0h-8.1
	c-0.1,0-0.2,0-0.2,0v0.1c0.1,0,0.2,0,0.2,0L38.5,9.7L38.5,9.7z"/>
<path class="st0" d="M28.6,10H27c-0.2,0-0.5-0.1-0.4-0.3c0.1-0.2,0.2-0.3,0.4-0.3c1.1,0,2.1,0,3.2,0c0.1,0,0.3,0.2,0.4,0.3
	c-0.1,0.1-0.3,0.3-0.4,0.3C29.6,10,29.1,10,28.6,10z"/>
<path class="st0" d="M29.5,10.2H27c-0.2,0-0.4,0-0.5-0.2c-0.1-0.1-0.1-0.3-0.1-0.4c0.1-0.3,0.4-0.5,0.6-0.5c1.1,0,2.2,0,3.2,0
	c0.2,0,0.3,0.1,0.5,0.2l0.1,0.1l0.3,0.2l-0.3,0.2c0,0-0.1,0.1-0.1,0.1c-0.1,0.1-0.3,0.2-0.4,0.3L29.5,10.2z M27.6,9.7H29
	c0.4,0,0.8,0,1.1,0h0.1l-0.1-0.1c-1,0-2.1,0-3.2,0c-0.1,0-0.1,0-0.2,0.1L27.6,9.7L27.6,9.7z"/>
<path class="st0" d="M39.3,15c-0.5,0-1.1,0-1.6,0c-0.1,0-0.3-0.2-0.4-0.3c0.1-0.1,0.3-0.3,0.4-0.3c1.1,0,2.2,0,3.3,0
	c0.2,0,0.4,0.1,0.4,0.3c-0.1,0.1-0.2,0.3-0.4,0.3C40.4,15,39.8,15,39.3,15z"/>
<path class="st0" d="M38.4,15.3c-0.3,0-0.5,0-0.7,0c-0.2,0-0.3-0.1-0.4-0.3l-0.1-0.1l-0.3-0.2l0.3-0.2c0,0,0.1-0.1,0.1-0.1
	c0.1-0.1,0.3-0.2,0.5-0.3c0.8,0,1.6,0,2.4,0h0.9c0.2,0,0.4,0.1,0.5,0.2c0.1,0.1,0.1,0.3,0.1,0.4c-0.1,0.3-0.3,0.5-0.6,0.5
	c-0.4,0-0.8,0-1.2,0C39.7,15.3,38.4,15.3,38.4,15.3z M37.6,14.7C37.6,14.7,37.7,14.7,37.6,14.7c0.4,0.1,0.8,0.1,1.2,0.1h0.9
	c0.4,0,0.8,0,1.2,0c0.1,0,0.1-0.1,0.2-0.1H40C39.2,14.6,38.4,14.6,37.6,14.7L37.6,14.7z"/>
</svg>
