<?xml version="1.0" encoding="utf-8"?>
<!-- Generator: Adobe Illustrator 23.0.3, SVG Export Plug-In . SVG Version: 6.00 Build 0)  -->
<svg version="1.1" id="Layer_1" xmlns="http://www.w3.org/2000/svg" xmlns:xlink="http://www.w3.org/1999/xlink" x="0px" y="0px"
	 viewBox="0 0 48 48" style="enable-background:new 0 0 48 48;" xml:space="preserve">
<style type="text/css">
	.st0{fill:#006CFF;}
</style>
<path class="st0" d="M36.7,25.7h-1.6V10.1h-5.5c-0.9,0-1.1-0.3-1.1-1.1V3.5H5.7v37.7h14.7v1.6H4V1.9h0.4c8.3,0,16.5,0,24.7,0
	c0.4,0,0.7,0.2,1,0.4c2.1,2,4.1,4.1,6.2,6.2c0.2,0.3,0.4,0.6,0.4,0.9c0,5.3,0,10.6,0,15.9C36.8,25.5,36.7,25.6,36.7,25.7z M30.2,4.8
	v3.6h3.6L30.2,4.8z"/>
<path class="st0" d="M28.6,35h0.2c0.7,0.2,1.3-0.2,1.6-0.8c0.6-0.8,1.2-1.6,1.9-2.2c0.7-0.6,1-1.5,0.9-2.3c0-0.5,0-1.1,0-1.6
	c0-0.4,0.3-0.8,0.8-0.9c0,0,0.1,0,0.1,0c1.8,0,3.3,1.4,3.3,3.2c0,0,0,0.1,0,0.1c-0.1,0.9,0,1.8,0.4,2.6c1.2,0,2.5,0,3.7,0
	c0.8-0.1,1.6,0.3,2.1,1.1c0.4,0.7,0.4,1.6-0.2,2.3c0.7,1.5,0.6,2-0.4,3c0.4,0.9,0.2,1.9-0.5,2.6c-0.1,0.1-0.1,0.3,0,0.4
	c0.4,1-0.1,2.2-1.1,2.6c-0.3,0.1-0.7,0.2-1,0.1h-8.7c-0.8,0-1.5-0.3-2-0.8c-0.2-0.2-0.7-0.2-1.2-0.3v1.1c0,0.5-0.3,0.9-0.8,0.9
	c-0.1,0-0.1,0-0.2,0h-4.8c-0.4,0.1-0.9-0.3-0.9-0.7c0-0.1,0-0.1,0-0.2V32.7c-0.1-0.4,0.3-0.8,0.7-0.9c0.1,0,0.1,0,0.2,0
	c1.6,0,3.2,0,4.8,0c0.6,0,0.9,0.3,0.9,0.9V35z M36.1,39.4c-0.6,0.2-1.3,0.4-2,0.5c-1.2,0.1-2.3,0-3.5,0c-0.6,0-1-0.3-1-0.8
	s0.4-0.8,1-0.8c1,0,2.1,0,3.1,0c0.9,0.1,1.8-0.4,2.2-1.3c0.7-1.2,0.8-2.6,0.2-3.8c-0.3-0.6-0.4-1.2-0.3-1.9c0-0.3,0-0.6,0-0.9
	c0-0.6-0.4-1.2-1-1.3c0.1,0.5,0.1,1.1,0,1.6c-0.2,0.9-0.7,1.7-1.3,2.3c-0.5,0.5-0.9,1-1.3,1.5c-0.5,0.5-0.8,1.1-0.9,1.7
	c0,0.4-0.4,0.7-0.8,0.7c-0.1,0-0.2,0-0.3-0.1c-0.5-0.4-1-0.2-1.5-0.2v5.8c0.5,0,0.9,0,1.4,0c0.4-0.1,0.8,0.2,1,0.6
	c0.1,0.3,0.4,0.5,0.7,0.4h4c0.2-0.6,0.3-1.1,0.4-1.6c0-0.1,0-0.2,0-0.3C35.8,40.9,35.7,40.1,36.1,39.4L36.1,39.4z M26.9,33.4h-3.2
	v11h3.2L26.9,33.4z M39.9,38.3h1.8c0.3,0,0.6-0.1,0.6-0.5s-0.3-0.4-0.6-0.4h-3.7c-0.3,0-0.6,0.1-0.6,0.5s0.3,0.5,0.6,0.5H39.9z
	 M39.5,40.9c0.5,0,1.1,0,1.6,0c0.3,0,0.5-0.1,0.5-0.5s-0.2-0.5-0.5-0.5H38c-0.2,0-0.5,0.1-0.5,0.3c0,0.1,0,0.1,0,0.2
	c0,0.3,0.2,0.4,0.5,0.4C38.5,40.9,39,40.9,39.5,40.9L39.5,40.9z M40.2,35.6h1.6c0.3,0,0.6-0.2,0.5-0.5c-0.1-0.2-0.3-0.4-0.5-0.4
	c-1,0-2.1,0-3.2,0c-0.2,0.1-0.4,0.2-0.5,0.4c-0.1,0.3,0.2,0.5,0.5,0.5H40.2z M39.3,42.6h-1.3c-0.3,0-0.4,0.2-0.4,0.5
	s0.1,0.5,0.4,0.5h2.7c0.3,0,0.4-0.2,0.4-0.5s-0.1-0.5-0.5-0.5H39.3z"/>
<path class="st0" d="M31.8,16.7v1.6H8.9v-1.6H31.8z"/>
<path class="st0" d="M31.8,21.6v1.6H8.9v-1.6H31.8z"/>
<path class="st0" d="M8.9,28.1v-1.6h22.9v1.6H8.9z"/>
<path class="st0" d="M31.8,11.7v1.6H9v-1.6H31.8z"/>
<path class="st0" d="M8.9,8.4V6.8h18v1.6H8.9z"/>
<path class="st0" d="M20.5,31.4V33H8.9v-1.6H20.5z"/>
<path class="st0" d="M30.2,4.8l3.6,3.6h-3.6V4.8z"/>
<path class="st0" d="M36.1,39.5c-0.4,0.7-0.3,1.5,0.1,2.1c0,0.1,0,0.2,0,0.3c-0.1,0.5-0.3,1-0.4,1.6h-4c-0.3,0-0.6-0.1-0.7-0.4
	c-0.2-0.4-0.6-0.6-1-0.6c-0.4,0-0.9,0-1.4,0v-5.8c0.5,0,1-0.1,1.5,0.2c0.4,0.2,0.8,0.1,1-0.2c0.1-0.1,0.1-0.2,0.1-0.3
	c0.1-0.6,0.4-1.2,0.9-1.7c0.4-0.5,0.9-1,1.3-1.5c0.6-0.6,1.1-1.5,1.3-2.3c0.1-0.5,0.1-1.1,0-1.6c0.6,0.1,1,0.7,1,1.3
	c0,0.3,0,0.6,0,0.9c0,0.6,0.1,1.3,0.3,1.9c0.5,1.2,0.4,2.6-0.2,3.8c-0.4,0.8-1.3,1.3-2.2,1.3c-1,0-2.1,0-3.1,0c-0.6,0-1,0.3-1,0.8
	s0.4,0.8,1,0.8c1.2,0,2.3,0.1,3.5,0C34.8,39.9,35.5,39.7,36.1,39.5z"/>
<path class="st0" d="M26.9,33.5v11h-3.2v-11H26.9z M25.3,42.8c0.5,0,0.8-0.4,0.8-0.8s-0.4-0.8-0.8-0.8c0,0,0,0,0,0
	c-0.4,0-0.8,0.4-0.8,0.8C24.5,42.5,24.8,42.8,25.3,42.8z"/>
<path class="st0" d="M39.9,38.3h-1.8c-0.3,0-0.6-0.1-0.6-0.5s0.3-0.5,0.6-0.5h3.7c0.3,0,0.5,0.1,0.6,0.4s-0.3,0.5-0.6,0.5H39.9z"/>
<path class="st0" d="M39.6,40.9c-0.5,0-1.1,0-1.6,0c-0.3,0-0.5-0.1-0.5-0.4c0-0.2,0.1-0.4,0.4-0.5c0,0,0.1,0,0.1,0h3.2
	c0.3,0,0.5,0.1,0.5,0.5s-0.2,0.5-0.5,0.5C40.6,40.9,40.1,40.9,39.6,40.9z"/>
<path class="st0" d="M40.2,35.7h-1.5c-0.3,0-0.6-0.2-0.5-0.5c0.1-0.2,0.3-0.4,0.5-0.4c1,0,2.1,0,3.2,0c0.2,0.1,0.4,0.2,0.5,0.4
	c0.1,0.3-0.2,0.5-0.5,0.5H40.2z"/>
<path class="st0" d="M39.3,42.6h1.3c0.3,0,0.5,0.1,0.5,0.5s-0.1,0.5-0.4,0.5h-2.7c-0.3,0-0.4-0.2-0.4-0.5s0.1-0.5,0.4-0.5H39.3z"/>
<path class="st0" d="M25.3,42.8c-0.4,0-0.8-0.4-0.8-0.8c0-0.4,0.4-0.8,0.8-0.8c0.5,0,0.8,0.4,0.8,0.8S25.7,42.8,25.3,42.8
	C25.3,42.8,25.3,42.8,25.3,42.8L25.3,42.8z"/>
</svg>
