<?xml version="1.0" encoding="utf-8"?>
<!-- Generator: Adobe Illustrator 23.0.3, SVG Export Plug-In . SVG Version: 6.00 Build 0)  -->
<svg version="1.1" id="Layer_1" xmlns="http://www.w3.org/2000/svg" xmlns:xlink="http://www.w3.org/1999/xlink" x="0px" y="0px"
	 viewBox="0 0 32 32" style="enable-background:new 0 0 32 32; padding-right: 10px" xml:space="preserve">
<style type="text/css">
	.st0{fill:#006CFF;}
	.st1{fill:#006CFF;}
</style>
<g>
	<polygon class="st0" points="12.4,20.7 2.7,30.3 3.2,30.8 22.6,30.8 	"/>
	<g>
		<path class="st1" d="M3.2,29.3h19.4h3.1c0.8,0,1.5-0.7,1.5-1.5v-2.5h2.6c0.8,0,1.5-0.7,1.5-1.5V3.4c0-0.8-0.7-1.5-1.5-1.5H7.3
			c-0.8,0-1.5,0.7-1.5,1.5V6H3.2C2.4,6,1.7,6.6,1.7,7.5v20.3C1.7,28.6,2.4,29.3,3.2,29.3z M3.4,28.3l9-8.9l5.8,5.7l3.2,3.2H3.4z
			 M22.8,28.3l-3.6-3.5l1.3-1.3l4.9,4.9H22.8z M6.8,3.4c0-0.3,0.2-0.5,0.5-0.5h22.5c0.3,0,0.5,0.2,0.5,0.5v20.3
			c0,0.3-0.2,0.5-0.5,0.5h-2.6V7.5c0-0.1,0-0.2,0-0.3c0-0.1,0-0.2-0.1-0.3c0,0,0,0,0,0c0-0.1-0.1-0.2-0.1-0.2c0,0,0,0,0,0
			c0,0-0.1-0.1-0.1-0.1C26.6,6.2,26.2,6,25.7,6H6.8V3.4z M3.2,7h22.5c0,0,0,0,0.1,0c0,0,0,0,0.1,0c0,0,0.1,0,0.2,0.1
			c0.2,0.1,0.3,0.2,0.3,0.4v17.2v2.8L21,22.3c-0.2-0.2-0.5-0.2-0.7,0L18.6,24l-5.8-5.7c-0.2-0.2-0.5-0.2-0.7,0l-9.3,9.3V7.5
			C2.7,7.2,2.9,7,3.2,7z"/>
		<path class="st1" d="M7.3,15.1c2,0,3.6-1.6,3.6-3.5S9.3,8,7.3,8s-3.6,1.6-3.6,3.5S5.3,15.1,7.3,15.1z M7.3,9
			c1.4,0,2.6,1.1,2.6,2.5s-1.1,2.5-2.6,2.5s-2.6-1.1-2.6-2.5S5.9,9,7.3,9z"/>
	</g>
</g>
</svg>
