<svg id="Layer_1" data-name="Layer 1" xmlns="http://www.w3.org/2000/svg" viewBox="0 0 224 283" fit="" height="100%" width="100%" preserveAspectRatio="xMidYMid meet" focusable="false"><defs><style>.cls-11{fill:#006CFF}.cls-22{fill:none}</style></defs><title>Initiate Onboard</title><path class="cls-11" d="M727.2 416.2a169.6 169.6 0 0 0 5.5-42.1c0-85.2-70-154.1-70-154.1s-70 68.9-70 154.1a169.4 169.4 0 0 0 5.5 42.1 98 98 0 0 0-47.6 84l74.5-21.3c4.8 8 9.6 15 14.1 21.3h19.4l-5.4-35.5-31.6-1.9 39.4-83.7a28.1 28.1 0 1 1 5.1-.2l43.7 83.3-31.7.4-4.6 37.5H686a247.6 247.6 0 0 0 14.1-21.3l74.5 21.3v-.4a97.5 97.5 0 0 0-47.4-83.5z" transform="translate(-550.7 -220)"></path><path class="cls-22" d="M74.7 283H64.3"></path></svg>