<?xml version="1.0" encoding="utf-8"?>
<!-- Generator: Adobe Illustrator 23.0.3, SVG Export Plug-In . SVG Version: 6.00 Build 0)  -->
<svg version="1.1" id="Layer_1" xmlns="http://www.w3.org/2000/svg" xmlns:xlink="http://www.w3.org/1999/xlink" x="0px" y="0px"
	 viewBox="0 0 48 48" style="enable-background:new 0 0 48 48;" xml:space="preserve">
<style type="text/css">
	.st0{fill:#006CFF;}
</style>
<path class="st0" d="M15.6,32.4h-2c-0.9,0-1.9-0.3-2.7-0.8c-0.8-0.5-1.6-1.1-2.4-1.6c-0.2-0.1-0.4-0.2-0.6-0.2c-1.2,0-2.4,0-3.6,0H4
	V18.2h0.9c0.9,0.1,1.9,0.1,2.8-0.1c0.8-0.3,1.6-0.8,2.4-1.3c0.4-0.2,0.8-0.5,1.2-0.7c0.7-0.4,1.4-0.5,2.2-0.5h2.1V7.4
	c-0.1-1.1,0.7-2,1.8-2.1c0.1,0,0.2,0,0.4,0h5.4c0.2,0,0.4-0.1,0.5-0.3c0.3-0.6,1-1,1.7-1h9C35,4,35.7,4.4,36,5
	c0.1,0.2,0.3,0.3,0.5,0.3h5.4C43,5.2,43.9,6,44,7.1c0,0.1,0,0.2,0,0.3v34.5c0.1,1.1-0.8,2.1-1.9,2.1c-0.1,0-0.2,0-0.3,0H17.7
	c-1.1,0.1-2.1-0.7-2.1-1.8c0-0.1,0-0.2,0-0.3L15.6,32.4z M40.1,40.1v-31h-3.7c-0.1,0-0.2,0.1-0.3,0.2c-0.4,0.7-1.1,1.1-1.9,1.1h-8.8
	c-0.8,0-1.5-0.4-1.9-1.1c-0.1-0.1-0.2-0.2-0.4-0.2h-3.4h-0.2v6.4H20c0.5,0,0.9,0,1.4,0.1c1.3,0.3,2.2,1.5,2,2.8
	c-0.1,1.3-1.2,2.3-2.5,2.3c-0.5,0-0.9,0-1.4,0v19.4H40.1z M5.3,28.5c1,0,2,0,3,0c0.3,0,0.5,0.1,0.8,0.2c0.8,0.5,1.6,1,2.4,1.6
	c1.3,1,2.7,0.7,4.2,0.7V20.8h-1.3c-0.5,2.3-2.5,4-4.5,3.8v-1.2c2.3-0.3,3.3-1.7,3.2-3.9h7.6c0.7,0,1.3-0.6,1.3-1.3
	c0-0.7-0.6-1.3-1.3-1.3c0,0,0,0,0,0c-2.4,0-4.8,0-7.1,0c-0.7,0-1.3,0.2-1.9,0.5c-1.1,0.6-2.2,1.3-3.3,1.9c-0.2,0.1-0.5,0.2-0.7,0.2
	c-0.8,0-1.6,0-2.3,0L5.3,28.5z M18.2,41.4V20.8h-1.3v21.1c0,0.6,0.2,0.8,0.8,0.8h24.2c0.6,0,0.8-0.2,0.8-0.8V7.4
	c0-0.6-0.2-0.8-0.8-0.8h-5.6v1.3h5.1v33.5H18.2z M29.8,9.1h4.4c0.5,0,0.8-0.2,0.8-0.8c0-0.8,0-1.6,0-2.3c0-0.6-0.2-0.8-0.8-0.8h-8.7
	c-0.6,0-0.8,0.2-0.8,0.8c0,0.8,0,1.5,0,2.3c0,0.6,0.2,0.8,0.8,0.8H29.8z M23.3,6.6h-5.6c-0.7,0-0.9,0.2-0.9,0.9v8.1h1.3V7.9h5.1V6.6
	z"/>
<path class="st0" d="M36.9,38.8H22.7c0-1.4-0.3-2.9,0.8-4c0.4-0.5,0.9-0.8,1.5-1c0.6-0.2,1.3-0.4,1.9-0.6c0.1,0,0.3-0.1,0.3-0.2
	c0-0.1,0-0.2-0.1-0.3c-1.3-1-1.9-2.5-1.8-4.1c0-0.6,0.1-1.3,0.2-1.9c0.6-2.4,3-3.9,5.4-3.3c2,0.5,3.4,2.3,3.4,4.4c0,0.7,0,1.4-0.1,2
	c-0.2,1.1-0.7,2.1-1.6,2.8c-0.1,0.1-0.2,0.3-0.3,0.4c0.1,0.1,0.3,0.2,0.4,0.2l1.8,0.5c1.4,0.4,2.3,1.7,2.3,3.1L36.9,38.8z
	 M33.1,28.5L33.1,28.5v-0.7c0-1.6-1.3-3-2.9-3.2c-1.7-0.2-3.2,0.9-3.5,2.6c-0.1,0.7-0.1,1.3-0.1,2c0,1.8,1.5,3.2,3.3,3.2
	c1.4,0,2.7-1,3.1-2.4C33,29.5,33.1,29,33.1,28.5z M35.6,37.5c0.3-1.1-0.4-2.2-1.5-2.5c-0.1,0-0.1,0-0.2,0l-1.2-0.3
	c-0.7-0.2-0.7-0.2-1.2,0.4c-0.6,0.8-1.1,1.5-1.7,2.3c-0.7-0.9-1.3-1.8-2-2.6c-0.1-0.2-0.4-0.3-0.6-0.2c0,0,0,0,0,0
	c-0.5,0.2-1.1,0.3-1.6,0.5c-1.1,0.2-1.8,1.2-1.6,2.3c0,0.1,0,0.1,0,0.2L35.6,37.5z M28.6,33.6l1.2,1.6l1.2-1.6L28.6,33.6z"/>
<path class="st0" d="M38.8,11.8V13H23.4v-1.2H38.8z"/>
<path class="st0" d="M38.8,14.4v1.2H24.7v-1.2H38.8z"/>
<path class="st0" d="M38.8,16.9v1.2H24.6v-1.2H38.8z"/>
<path class="st0" d="M36.2,19.5v1.2H24.7v-1.2H36.2z"/>
<path class="st0" d="M20.8,11.8H22V13h-1.2V11.8z"/>
<path class="st0" d="M38.8,20.8h-1.2v-1.3h1.2V20.8z"/>
<path class="st0" d="M26,7.8V6.6h1.2v1.3H26z"/>
<path class="st0" d="M32.4,7.8V6.6h1.3v1.2H32.4z"/>
</svg>
