<?xml version="1.0" encoding="utf-8"?>
<!-- Generator: Adobe Illustrator 23.0.3, SVG Export Plug-In . SVG Version: 6.00 Build 0)  -->
<svg version="1.1" id="fc0ad521-30c0-4805-a1eb-1d05729d2487"
	 xmlns="http://www.w3.org/2000/svg" xmlns:xlink="http://www.w3.org/1999/xlink" x="0px" y="0px" viewBox="0 0 48 48"
	 style="enable-background:new 0 0 48 48;" xml:space="preserve">
<style type="text/css">
	.st0{fill:#006CFF;}
</style>
<path class="st0" d="M21.1,2.2h2.2c0.1,0,0.2,0.1,0.4,0.1c0.8,0.1,1.6,0.2,2.4,0.3c10.8,2.2,17.8,12.8,15.6,23.6
	c-0.1,0.4-0.2,0.7-0.3,1.1c-0.2,0.7-0.5,1.5-0.7,2.2c2.7-0.7,4.3,1.4,3.4,3.8c0.4,0.4,0.8,0.8,1.2,1.2c0.2,0.3,0.3,0.7,0.4,1v0.7
	c-0.2,0.6-0.5,1.1-0.8,1.6c-2,2-4,4-6,6c-1.5,1.5-3.7,2.2-5.8,1.8c-2.4-0.3-4.4-1.7-5.5-3.8c-0.1-0.3-0.4-0.4-0.7-0.3c0,0,0,0,0,0
	c-3.7,1-7.7,0.8-11.3-0.5C8.8,38.7,3.8,32.8,2.5,25.7c-0.2-0.8-0.2-1.5-0.3-2.3v-2.2c0-0.1,0.1-0.3,0.1-0.4c0.2-1,0.2-2,0.4-2.9
	C4.5,10,10.8,4,18.7,2.6C19.5,2.4,20.3,2.3,21.1,2.2z M26.7,32.6c-0.3,0.4-0.7,0.6-1.2,0.5H14.3c-0.1,0-0.2,0-0.3,0
	c-0.5-0.1-0.9-0.5-0.8-1c0-0.4,0.4-0.8,0.8-0.8h11.4c0.5,0,1,0,1.3,0.6c0.3-2,1.3-3.1,2.8-3.2c0.9,0,1.8,0.4,2.3,1.1
	c0.6,0.7,0.9,1.6,0.8,2.5c0.1-0.1,0.3-0.2,0.4-0.3c1-1,2-2,2.9-3c0.4-0.4,0.9-0.7,1.5-0.8c0.6,0,1.3,0,1.9,0.1l0.1-0.3
	c1-3.1,1.2-6.4,0.5-9.5C38,8.7,28.5,2.4,18.7,4.3c-0.2,0-0.4,0.1-0.6,0.1C8.4,6.6,2.3,16.2,4.3,25.9c1.9,9.8,11.4,16.2,21.2,14.3
	c0.2,0,0.5-0.1,0.7-0.2c0.4-0.1,0.6-0.2,0.5-0.7c0-0.2,0-0.3,0-0.5C26.7,36.7,26.7,34.6,26.7,32.6z M28.5,35.4L28.5,35.4v0.3
	c0,1.1,0,2.2,0,3.3c0.1,1.3,0.7,2.4,1.6,3.3c1.8,2.2,5.1,2.5,7.2,0.6c0.2-0.2,0.4-0.4,0.6-0.6c1.9-1.9,3.8-3.7,5.6-5.6
	c0.4-0.3,0.5-0.8,0.2-1.3c0-0.1-0.1-0.1-0.1-0.2c-0.5-0.5-0.8-0.5-1.4,0.1l-2.5,2.5c-0.3,0.3-0.7,0.4-1.1,0.2
	c-0.4-0.2-0.6-0.6-0.5-1c0.1-0.2,0.2-0.5,0.4-0.6c1.3-1.2,2.5-2.4,3.7-3.6c0.4-0.3,0.5-0.8,0.2-1.2c-0.1-0.1-0.1-0.2-0.2-0.2
	C42,31,41.6,31,41.1,31.5c-1.2,1.2-2.3,2.4-3.5,3.6c-0.2,0.2-0.3,0.3-0.5,0.4c-0.3,0.2-0.7,0.1-1-0.2c-0.3-0.3-0.4-0.7-0.2-1
	c0.1-0.2,0.2-0.4,0.4-0.5c0.8-0.8,1.6-1.6,2.4-2.4c0.3-0.2,0.3-0.5,0.2-0.8c-0.4-0.9-1-1-1.7-0.3c-1.6,1.6-3.2,3.2-4.8,4.9
	c-0.3,0.3-0.7,0.5-1.1,0.3c-0.4-0.2-0.6-0.6-0.5-1c0-1,0.1-1.9,0.1-2.9c0.1-0.5-0.3-0.9-0.8-1c0,0,0,0,0,0c-0.6-0.2-1.2,0.1-1.4,0.6
	c-0.1,0.2-0.1,0.4-0.1,0.5L28.5,35.4z"/>
<path class="st0" d="M34.2,45.8c-0.3,0-0.7,0-1-0.1c-2.4-0.3-4.5-1.7-5.6-3.8c-0.1-0.2-0.4-0.4-0.6-0.3c0,0,0,0,0,0
	c-3.7,1-7.7,0.8-11.3-0.5c-6.9-2.4-12-8.3-13.2-15.5c-0.1-0.5-0.2-1-0.2-1.6c0-0.3-0.1-0.5-0.1-0.7v-2.2c0-0.1,0-0.1,0-0.1l0.1-0.3
	c0-0.3,0.1-0.6,0.1-0.9c0.1-0.6,0.2-1.3,0.3-2C4.5,10,10.7,4,18.6,2.4c0.5-0.1,1.1-0.2,1.7-0.2L21,2.1h2.2h0.1l0.3,0l0.8,0.1
	c0.5,0.1,1.1,0.1,1.6,0.2c5.4,1.1,10.2,4.5,13.1,9.2c2.9,4.6,3.7,10.3,2.3,15.6c-0.1,0.5-0.3,1-0.5,1.5l-0.2,0.6
	c1.5-0.5,3,0.3,3.5,1.7c0.2,0.7,0.2,1.5-0.1,2.1l0.3,0.3c0.3,0.3,0.6,0.5,0.8,0.8c0.1,0.2,0.3,0.5,0.3,0.7l0.1,0.3v0.7
	c-0.1,0.2-0.2,0.4-0.2,0.5c-0.1,0.4-0.3,0.8-0.6,1.2c-1.9,2-3.9,4-6,6C37.7,45.2,36,45.9,34.2,45.8z M27.2,41.5
	c0.2,0,0.4,0.1,0.5,0.4c1.1,2.1,3.2,3.5,5.5,3.8c2.1,0.3,4.2-0.4,5.7-1.8c2.1-2,4.1-4,6-6c0.3-0.3,0.5-0.7,0.6-1.1
	c0.1-0.2,0.2-0.4,0.2-0.5v-0.7c0-0.1-0.1-0.2-0.1-0.3c-0.1-0.2-0.2-0.5-0.3-0.7c-0.2-0.3-0.5-0.6-0.8-0.8l-0.4-0.4l0,0l0,0
	c0.5-1,0.3-2.1-0.3-3c-0.8-0.8-1.9-1.1-3-0.7h-0.1v-0.1c0.1-0.2,0.2-0.5,0.2-0.7c0.2-0.5,0.3-1,0.5-1.5c1.4-5.2,0.6-10.8-2.3-15.4
	c-2.9-4.7-7.6-8-13-9.1c-0.5-0.1-1.1-0.2-1.6-0.2l-0.8-0.1l-0.3-0.1h-0.1h-2.2l-0.8,0.1c-0.5,0.1-1.1,0.1-1.7,0.2
	c-7.8,1.5-14,7.4-15.9,15.2c-0.1,0.6-0.2,1.3-0.3,1.9c0,0.3-0.1,0.6-0.1,1c0,0.1,0,0.2,0,0.3v0.1v2.2c0,0.2,0.1,0.5,0.1,0.7
	c0.1,0.5,0.1,1,0.2,1.6c1.2,7.1,6.2,13,13,15.3c3.6,1.3,7.5,1.5,11.2,0.5C27,41.5,27.1,41.5,27.2,41.5L27.2,41.5z M34.1,44.2
	L34.1,44.2c-1.5-0.1-3-0.7-4-1.9c-1-0.8-1.6-2-1.6-3.3c0-0.8,0-1.5,0-2.3c0-0.3,0-0.7,0-1v-0.3v-0.1v-1.1c0-0.8,0-1.7,0-2.5
	c0-0.4,0.1-0.8,0.4-1.1c0.3-0.2,0.8-0.3,1.1-0.2c0.5,0.1,0.9,0.5,0.9,1c0,0.9,0,1.8-0.1,2.9c0,0.5,0.1,0.8,0.5,1s0.7,0.1,1.1-0.3
	l4-4l0.8-0.8c0.2-0.3,0.6-0.5,1-0.5c0.3,0,0.6,0.3,0.8,0.8c0.2,0.3,0.1,0.7-0.2,0.9L38.1,32l-1.8,1.8c-0.2,0.2-0.3,0.3-0.4,0.5
	c-0.2,0.3-0.1,0.7,0.2,0.9c0.2,0.3,0.6,0.3,0.9,0.2c0.2-0.1,0.4-0.2,0.5-0.4l1.7-1.7l1.8-1.9c0.5-0.5,0.9-0.5,1.4-0.1
	c0.2,0.2,0.4,0.4,0.4,0.7c0,0.3-0.2,0.6-0.4,0.8l-1.5,1.5l-2.2,2.2c-0.2,0.2-0.3,0.4-0.4,0.6c-0.1,0.4,0.1,0.7,0.4,0.9
	c0.3,0.2,0.7,0.1,1-0.2l1.5-1.5l1-1c0.6-0.6,1-0.6,1.5-0.1c0.4,0.4,0.4,1,0,1.4c0,0-0.1,0.1-0.1,0.1l-5.6,5.6
	C37.1,43.5,35.6,44.2,34.1,44.2L34.1,44.2z M28.6,35.3L28.6,35.3v0.4c0,0.3,0,0.7,0,1c0,0.8,0,1.5,0,2.3c0.1,1.2,0.7,2.4,1.6,3.2
	c1,1.1,2.4,1.8,3.9,1.8l0,0c1.5,0,2.9-0.7,4-1.8c1.9-1.9,3.8-3.8,5.6-5.6c0.5-0.5,0.5-0.9,0.1-1.3s-0.8-0.4-1.3,0.1l-1,1l-1.6,1.5
	c-0.3,0.3-0.8,0.4-1.2,0.2c-0.4-0.2-0.6-0.6-0.5-1c0.1-0.3,0.2-0.5,0.4-0.7c0.7-0.7,1.4-1.4,2.1-2.1l1.5-1.5
	c0.2-0.2,0.3-0.4,0.3-0.7c0-0.3-0.2-0.5-0.4-0.6c-0.4-0.4-0.7-0.4-1.2,0.1l-1.8,1.9l-1.7,1.7c-0.2,0.2-0.4,0.3-0.6,0.4
	c-0.4,0.2-0.8,0.1-1.1-0.2c-0.3-0.3-0.4-0.7-0.2-1.1c0.1-0.2,0.2-0.4,0.4-0.6l1.8-1.8l0.6-0.6c0.2-0.2,0.3-0.5,0.2-0.7
	c-0.2-0.4-0.5-0.6-0.7-0.7s-0.5,0.1-0.9,0.4l-0.8,0.8l-4.1,4.1c-0.3,0.4-0.8,0.5-1.2,0.3c-0.4-0.2-0.7-0.7-0.6-1.1
	c0-1,0.1-2,0.1-2.9c0.1-0.4-0.2-0.8-0.7-0.9c0,0,0,0-0.1,0c-0.5-0.2-1.1,0.1-1.3,0.6c-0.1,0.2-0.1,0.4,0,0.5c0,0.8,0,1.7,0,2.5
	L28.6,35.3z M22.1,40.5c-3.6,0-7-1-10-3C8,34.8,5.2,30.6,4.3,25.9c-2-9.7,4.1-19.2,13.8-21.4c4.8-1.1,9.9-0.2,14.1,2.5
	c4.1,2.6,6.9,6.8,7.9,11.6c0.7,3.2,0.5,6.5-0.6,9.5l-0.1,0.3v0.1l0,0h-0.6c-0.4,0-0.8,0-1.3,0c-0.6,0.1-1.1,0.3-1.5,0.8l-1.5,1.5
	L33,32l-0.1,0.1c-0.1,0.1-0.2,0.2-0.3,0.3l-0.1,0.1v-0.1c0.1-0.9-0.2-1.8-0.8-2.4c-0.5-0.6-1.3-1-2.1-1h-0.2C28,28.9,27,30,26.8,32
	v0.2L26.7,32c-0.3-0.5-0.7-0.6-1.2-0.6H14c-0.4,0.1-0.7,0.6-0.5,1c0.1,0.2,0.3,0.4,0.5,0.5h11.5c0.4,0.1,0.9-0.1,1.1-0.5l0.1-0.2
	v6.4c0,0,0,0.1,0,0.2c0,0.1,0,0.2,0,0.3c0.1,0.2,0.1,0.3,0,0.5c-0.1,0.2-0.3,0.3-0.5,0.3C24.9,40.3,23.5,40.5,22.1,40.5z M22.3,4.1
	c-1.4,0-2.8,0.2-4.1,0.5C8.5,6.7,2.4,16.2,4.4,25.8c0.9,4.7,3.7,8.9,7.7,11.5c4.2,2.7,9.3,3.6,14.1,2.5c0.3-0.1,0.4-0.1,0.4-0.2
	c0.1-0.1,0.1-0.3,0-0.4c0-0.1,0-0.3,0-0.4v-6.1c-0.3,0.3-0.7,0.4-1.1,0.4c-2.9,0-5.7,0-8.6,0H14c-0.5,0-0.9-0.4-0.9-1
	c0-0.6,0.4-1,1-1h11.4c0.5-0.1,0.9,0.1,1.2,0.5c0.3-1.9,1.3-2.9,2.9-3h0.2c0.9,0,1.7,0.4,2.2,1.1c0.6,0.7,0.9,1.5,0.8,2.4
	c0-0.1,0.1-0.1,0.1-0.2c0,0,0.1-0.1,0.1-0.1l1.4-1.4l1.5-1.5c0.4-0.5,1-0.7,1.6-0.8c0.4,0,0.9,0,1.3,0h0.6c0-0.1,0.1-0.1,0.1-0.3
	c1-3.1,1.2-6.3,0.6-9.5c-1-4.7-3.8-8.8-7.8-11.4C29.2,5.1,25.8,4.1,22.3,4.1z"/>
<path class="st0" d="M31.2,16.8c-0.1,0.9-0.8,1.7-1.8,1.8c-1-0.1-1.7-0.9-1.8-1.9c0.1-0.9,0.9-1.7,1.8-1.7
	C30.4,15.1,31.1,15.9,31.2,16.8z"/>
<path class="st0" d="M29.5,18.6L29.5,18.6c-0.5,0-1-0.3-1.3-0.6c-0.4-0.3-0.6-0.8-0.6-1.3c0-0.5,0.3-1,0.6-1.3
	c0.3-0.3,0.8-0.5,1.2-0.6l0,0c1,0.1,1.8,0.9,1.8,1.9l0,0C31.2,17.7,30.4,18.5,29.5,18.6z M29.5,15c-0.4,0-0.8,0.2-1.1,0.5
	c-0.3,0.3-0.5,0.7-0.6,1.2c0.1,0.9,0.8,1.7,1.7,1.8l0,0c0.9-0.1,1.6-0.8,1.7-1.7C31.1,15.9,30.4,15.1,29.5,15L29.5,15z"/>
<path class="st0" d="M16.7,16.8c-0.1,1-0.8,1.7-1.8,1.8c-1-0.1-1.7-0.9-1.8-1.8c0.1-0.9,0.9-1.7,1.8-1.8
	C15.9,15.1,16.6,15.8,16.7,16.8z"/>
<path class="st0" d="M14.9,18.6c-0.5,0-0.9-0.2-1.3-0.6c-0.4-0.3-0.6-0.8-0.6-1.3c0.1-1,0.9-1.8,1.9-1.9c1,0.1,1.8,0.9,1.9,1.9l0,0
	C16.7,17.8,15.9,18.6,14.9,18.6L14.9,18.6z M14.9,15c-0.9,0.1-1.6,0.8-1.7,1.7c0,0.5,0.2,0.9,0.6,1.2c0.3,0.3,0.7,0.5,1.2,0.5l0,0
	c0.9-0.1,1.6-0.8,1.7-1.7l0,0C16.6,15.9,15.8,15.2,14.9,15L14.9,15z"/>
</svg>
