<?xml version="1.0" encoding="utf-8"?>
<!-- Generator: Adobe Illustrator 23.0.3, SVG Export Plug-In . SVG Version: 6.00 Build 0)  -->
<svg version="1.1" id="Layer_1" xmlns="http://www.w3.org/2000/svg" xmlns:xlink="http://www.w3.org/1999/xlink" x="0px" y="0px"
	 viewBox="0 0 48 48" style="enable-background:new 0 0 48 48;" xml:space="preserve">
<style type="text/css">
	.st0{fill:#006CFF;}
</style>
<path class="st0" d="M33.2,2.1h3.6c0,1,0,2.1,0,3.2c0,0.4,0.1,0.6,0.5,0.6c2,0,4,0,6,0C44,5.8,44,5.7,44,6.5v38.7c0,0.2,0,0.5,0,0.7
	H4c0-0.2,0-0.5,0-0.7V6.5c0-0.8,0-0.7,0.7-0.7h6.1c0.2,0,0.4,0,0.4-0.3c0-1.1,0-2.3,0-3.4h3.6v3c0,0.7,0,0.7,0.7,0.7h17
	c0.1,0,0.2,0,0.3,0c0.1-0.1,0.3-0.2,0.3-0.3C33.2,4.4,33.2,3.3,33.2,2.1z M7.6,18.5V19c0,7.6,0,15.2,0,22.8c0,0.5,0.2,0.5,0.6,0.5
	h31.8c0.6,0,0.6,0,0.6-0.6V18.5H7.6z M24,15h15.8c0.7,0,0.7,0,0.7-0.7V9.9c0-0.6,0-0.6-0.6-0.6c-0.9,0-1.8,0-2.7,0
	c-0.4,0-0.5,0.1-0.5,0.5c0,0.9,0,1.8,0,2.7c0,0.4-0.1,0.4-0.4,0.4c-0.9,0-1.8,0-2.7,0c-0.4,0-0.5-0.1-0.5-0.5c0-0.9,0-1.9,0-2.8
	c0-0.3-0.1-0.4-0.4-0.4H15.3c-0.4,0-0.5,0.1-0.4,0.5c0,0.9,0,1.9,0,2.8c0,0.4-0.1,0.4-0.4,0.4c-0.9,0-1.8,0-2.6,0
	c-0.4,0-0.5-0.1-0.4-0.5c0-0.9,0-1.9,0-2.8c0-0.3-0.1-0.4-0.4-0.4H8c-0.3,0-0.4,0.1-0.4,0.4c0,1.5,0,3.1,0,4.6c0,0.6,0,0.6,0.6,0.6
	L24,15z"/>
<path class="st0" d="M30.3,33.3l-2.5,2.5l-0.3-0.3c-1.1-1.1-2.1-2.1-3.2-3.2c-0.3-0.3-0.4-0.3-0.7,0c-1.1,1.1-2.1,2.1-3.2,3.2
	l-0.3,0.3l-2.6-2.6c0.1,0,0.3-0.1,0.4-0.2c1.1-1.1,2.1-2.1,3.2-3.2c0.3-0.3,0.3-0.4,0-0.6C20.1,28.1,19,27,18,25.9l-0.3-0.3l2.5-2.5
	c0.2,0.2,0.4,0.5,0.6,0.7c0.9,1,1.9,1.9,2.8,2.9c0.3,0.3,0.4,0.2,0.6,0c1.1-1.2,2.3-2.3,3.5-3.5l2.5,2.5l-0.2,0.3
	c-1.1,1.1-2.2,2.1-3.3,3.2c-0.3,0.3-0.3,0.4,0,0.7c1.1,1.1,2.2,2.1,3.2,3.2L30.3,33.3z"/>
</svg>
