<?xml version="1.0" encoding="utf-8"?>
<!-- Generator: Adobe Illustrator 23.0.3, SVG Export Plug-In . SVG Version: 6.00 Build 0)  -->
<svg version="1.1" id="e89b17d0-2162-45e7-acc4-4656a263c2f5"
	 xmlns="http://www.w3.org/2000/svg" xmlns:xlink="http://www.w3.org/1999/xlink" x="0px" y="0px" viewBox="0 0 48 48"
	 style="enable-background:new 0 0 48 48;" xml:space="preserve">
<style type="text/css">
	.st0{fill:#006CFF;}
</style>
<path class="st0" d="M44,19.7c-0.1,0.5-0.2,1.1-0.4,1.6c-0.3,0.7-0.4,1.5-0.2,2.2c0.1,0.8,0.1,1.6,0,2.4c-0.3,1.5-1.5,2.6-3,2.8
	c-1.2,0.1-2.3,0-3.5-0.3c-0.4-0.1-0.7-0.1-1.1-0.2c-1-0.1-2,0.3-2.5,1.1c-0.5,0.8-0.9,1.7-1.2,2.7c-0.6,1.9-1.1,3.7-1.6,5.6
	c-0.3,1.1-0.9,2.2-1.6,3.1c-1,1.5-2.9,2.2-4.6,1.8c-0.4-0.1-0.6-0.3-0.7-0.7c-0.3-0.8-0.3-1.7-0.2-2.5c0.1-1,0.4-1.9,0.4-2.9
	c0.1-2.7-1-5.2-3.1-6.9c-0.5-0.3-0.9-0.6-1.4-0.9c-0.1,0.2-0.1,0.4-0.2,0.5c-0.4,1.3-1.6,2.2-2.9,2.2h-9c-1.5,0-2.8-1-3.1-2.5
	c0-0.1,0-0.1-0.1-0.2V11.7c0,0,0-0.1,0.1-0.1c0.2-1.6,1.7-2.8,3.3-2.6h4.2c1.6,0,3.1,0,4.7,0c1.1,0,2.1,0.7,2.6,1.7
	c0.3,0.5,0.4,0.6,1,0.4c0.7-0.2,1.3-0.6,1.8-1.2c0.5-0.5,1-1.1,1.5-1.6c1.6-1.7,3.8-2.7,6.1-2.7c2.7-0.1,5.5,0,8.2,0
	c0.9,0,1.8,0.2,2.7,0.6c0.9,0.4,1.5,1.1,1.7,2c0.1,0.7,0.1,1.5-0.1,2.2c-0.1,0.2,0,0.5,0.2,0.6c1.1,1.1,1.6,2.7,1.4,4.3
	c-0.1,0.7,0,1.5,0.3,2.1c0.2,0.5,0.3,1,0.4,1.5L44,19.7z M19.3,12.3c0,0,0,0.1,0,0.1c0,4.9,0,9.7,0,14.6c0,0.2,0.1,0.3,0.3,0.4
	c0.9,0.3,1.8,0.8,2.4,1.5c2.5,2.4,3.5,5.9,2.8,9.2c-0.1,0.9-0.2,1.7-0.2,2.6c0,0.4,0.2,0.6,0.6,0.6c1.1,0.1,2.1-0.4,2.7-1.3
	c0.5-0.6,0.9-1.3,1.2-2.1c0.7-1.9,1.2-3.9,1.8-5.8c0.3-1.3,0.8-2.5,1.5-3.6c0.6-1,1.6-1.6,2.8-1.6c0.7,0,1.3,0.1,1.9,0.2
	c0.9,0.1,1.8,0.3,2.7,0.3c1.3,0.1,2.5-0.9,2.6-2.2c0-0.1,0-0.1,0-0.2c0.1-0.8,0-1.6-0.3-2.4c-0.1-0.4-0.1-0.8,0.1-1.1
	c1-1.4,0.9-3.4-0.2-4.7c-0.1-0.1-0.1-0.3,0-0.5c0.7-1.8,0.1-3.8-1.3-5c-0.2-0.1-0.2-0.3-0.1-0.5c0.1-0.4,0.3-0.9,0.3-1.3
	c0.3-1-0.3-2.1-1.3-2.4c0,0-0.1,0-0.1,0c-0.8-0.3-1.6-0.4-2.4-0.4c-2.4,0-4.7,0-7.1,0c-2.4,0-4.7,1-6.2,2.8
	c-0.4,0.4-0.8,0.8-1.2,1.2C21.7,11.7,20.5,12.2,19.3,12.3z M18,20.1v-7.8c0.1-1-0.7-2-1.7-2.1c-0.1,0-0.2,0-0.4,0H7.3
	c-1.1-0.1-2,0.7-2.1,1.7c0,0.1,0,0.3,0,0.4c0,5.2,0,10.4,0,15.5C5.1,28.9,5.9,29.9,7,30c0.1,0,0.2,0,0.4,0c2.8,0,5.7,0,8.5,0
	c1,0.1,2-0.6,2.1-1.7c0-0.1,0-0.3,0-0.4L18,20.1z"/>
<path class="st0" d="M25.3,42.7c-0.4,0-0.7,0-1.1-0.1c-0.4-0.1-0.8-0.4-0.9-0.8C23,40.9,23,40,23.1,39.1c0-0.4,0.1-0.8,0.2-1.2
	c0.1-0.6,0.2-1.1,0.2-1.7c0.1-2.6-1-5.1-3-6.7c-0.3-0.2-0.6-0.4-0.9-0.6l-0.2-0.1L19.3,29c-0.4,1.4-1.7,2.4-3.2,2.4h-9
	c-1.6,0-3-1.1-3.3-2.7c0,0,0-0.1,0-0.1v-0.2V11.5c0.3-1.7,1.8-3,3.6-2.8h5.5c1.1,0,2.3,0,3.4,0c1.2,0,2.3,0.7,2.8,1.8
	c0.2,0.4,0.2,0.4,0.7,0.3c0.7-0.2,1.2-0.6,1.7-1.1c0.4-0.4,0.7-0.7,1.1-1.1L23,8.1c1.6-1.7,3.9-2.7,6.3-2.8c2.7-0.1,5.3,0,8.3,0
	c1,0,1.9,0.2,2.8,0.6c0.9,0.4,1.6,1.2,1.9,2.2c0.2,0.8,0.1,1.6-0.1,2.3c-0.1,0.1,0,0.3,0.1,0.4c1.1,1.2,1.6,2.8,1.4,4.4
	c-0.1,0.7-0.1,1.4,0.3,2c0.2,0.3,0.3,0.7,0.3,1c0,0.1,0.1,0.3,0.1,0.5v0.9c0,0.2-0.1,0.3-0.1,0.5c-0.1,0.4-0.2,0.8-0.3,1.1
	c-0.3,0.6-0.4,1.3-0.2,2c0.1,0.8,0.1,1.6,0,2.4c-0.3,1.6-1.6,2.8-3.2,3c-1.1,0.1-2.3,0-3.4-0.2h-0.1c-0.4-0.1-0.8-0.1-1.1-0.2
	c-0.9-0.1-1.8,0.3-2.3,1c-0.5,0.8-0.9,1.6-1.1,2.6c-0.2,0.7-0.4,1.5-0.7,2.2c-0.3,1.1-0.6,2.2-1,3.3c-0.4,1.2-0.9,2.2-1.6,3.2
	C28.2,42,26.8,42.7,25.3,42.7z M19.1,28.1l0.3,0.2l0.5,0.3c0.4,0.2,0.7,0.4,1,0.6c2.1,1.7,3.3,4.4,3.1,7.1c0,0.6-0.1,1.2-0.2,1.8
	c-0.1,0.4-0.1,0.8-0.2,1.1c-0.1,0.8-0.1,1.6,0.2,2.4c0.1,0.3,0.3,0.5,0.5,0.5c1.7,0.4,3.4-0.3,4.4-1.7c0.7-0.9,1.2-2,1.5-3
	c0.4-1.1,0.7-2.2,1-3.3c0.2-0.7,0.4-1.5,0.7-2.2c0.2-1,0.7-1.9,1.2-2.7c0.6-0.9,1.6-1.4,2.7-1.3c0.4,0,0.7,0.1,1.1,0.2h0.1
	c1.1,0.3,2.2,0.4,3.3,0.2c1.4-0.1,2.6-1.2,2.8-2.6c0.1-0.8,0.1-1.5,0-2.3c-0.2-0.8-0.1-1.6,0.2-2.3c0.1-0.3,0.2-0.7,0.3-1
	c0-0.2,0.1-0.3,0.1-0.5v-0.7c0-0.1-0.1-0.3-0.1-0.5c0-0.3-0.1-0.6-0.3-0.9c-0.3-0.7-0.5-1.5-0.3-2.3c0.2-1.5-0.3-3-1.3-4.1
	c-0.2-0.2-0.3-0.6-0.2-0.9c0.2-0.7,0.2-1.4,0.1-2.1c-0.2-0.8-0.8-1.5-1.6-1.8c-0.8-0.4-1.7-0.6-2.6-0.6c-2.9,0-5.6-0.1-8.2,0
	c-2.2,0-4.4,1-5.9,2.6l-0.5,0.5c-0.4,0.4-0.7,0.8-1.1,1.1c-0.5,0.6-1.2,1-1.9,1.2c-0.7,0.2-0.9,0.1-1.2-0.5
	c-0.4-0.9-1.3-1.5-2.3-1.5c-1.1,0-2.3,0-3.4,0H7.4C5.9,9,4.5,10.1,4.3,11.6l-0.1,0.1v16.6c0,0.1,0.1,0.1,0.1,0.2
	c0.2,1.4,1.5,2.4,2.8,2.3h9c1.2,0,2.3-0.8,2.7-2L19.1,28.1z M25.3,41.5h-0.1c-0.2,0-0.5-0.1-0.6-0.2c-0.1-0.2-0.2-0.4-0.2-0.6
	c0-0.2,0-0.5,0-0.7c0-0.7,0.1-1.3,0.2-2c0.8-3.3-0.2-6.7-2.7-9c-0.7-0.7-1.5-1.2-2.4-1.5C19.2,27.5,19,27.2,19,27
	c0-3.4,0-6.8,0-10.2v-4.5v-0.2l0.2-0.1c1.2-0.1,2.3-0.6,3.1-1.5c0.4-0.4,0.8-0.8,1.1-1.2c1.6-1.9,3.9-3,6.4-2.9c2.1,0,4.6,0,7.1,0
	c0.8,0,1.6,0.2,2.4,0.4c1.2,0.2,1.9,1.4,1.7,2.6c0,0,0,0.1,0,0.1c-0.1,0.4-0.2,0.9-0.3,1.3v0.1c0,0.1,0,0.1,0.1,0.2
	c1.5,1.3,2.1,3.4,1.4,5.3c0,0.1,0,0.2,0,0.2c1.1,1.4,1.2,3.5,0.2,5c-0.2,0.2-0.2,0.6-0.1,0.9c0.3,0.8,0.4,1.6,0.4,2.5
	c0,1.5-1.2,2.6-2.7,2.6c-0.1,0-0.1,0-0.2,0l0,0c-0.6,0-1.2-0.1-1.8-0.2c-0.3,0-0.6-0.1-0.9-0.1l-0.5-0.1c-0.5-0.1-1-0.1-1.5-0.1
	c-1,0.1-2,0.6-2.6,1.5c-0.7,1-1.2,2.2-1.5,3.4v0.1c-0.2,0.5-0.3,1.1-0.5,1.6c-0.4,1.4-0.9,2.8-1.3,4.2c-0.3,0.8-0.7,1.5-1.3,2.2
	C27.4,41,26.3,41.5,25.3,41.5z M19.5,12.5v4.3c0,3.4,0,6.8,0,10.2c0,0,0,0.1,0,0.1l0.1,0c1,0.3,1.9,0.9,2.6,1.6
	c2.5,2.4,3.6,6,2.8,9.5c-0.1,0.6-0.2,1.2-0.2,1.8c0,0.2,0,0.5,0,0.7c0,0.1,0,0.2,0,0.2C25,41,25.1,41,25.2,41c1,0.1,1.9-0.4,2.5-1.2
	c0.5-0.6,0.9-1.3,1.1-2c0.5-1.4,0.9-2.8,1.3-4.2c0.2-0.5,0.3-1.1,0.5-1.6l0-0.1c0.3-1.2,0.8-2.4,1.5-3.5c0.7-1,1.7-1.7,3-1.7
	c0.5,0,1,0,1.5,0.1l0.5,0.1L38,27c0.6,0.1,1.1,0.2,1.7,0.2l0,0c1.2,0.1,2.2-0.8,2.3-1.9c0-0.1,0-0.2,0-0.3c0.1-0.8,0-1.5-0.3-2.3
	c-0.2-0.4-0.1-0.9,0.1-1.3c0.9-1.4,0.9-3.2-0.2-4.5c-0.1-0.2-0.1-0.5-0.1-0.7c0.7-1.7,0.1-3.6-1.3-4.8c-0.2-0.2-0.3-0.5-0.2-0.7
	v-0.1c0.1-0.4,0.2-0.8,0.3-1.2c0.3-0.9-0.2-1.8-1.1-2.1c-0.1,0-0.1,0-0.2-0.1C38.5,7.1,37.8,7,37,7c-2.5,0-5,0-7.1,0
	c-2.3,0-4.5,1-6,2.7c-0.4,0.4-0.8,0.9-1.2,1.2C21.9,11.9,20.7,12.4,19.5,12.5L19.5,12.5z M7.3,30.2c-0.6,0-1.2-0.2-1.7-0.6
	C5.2,29.1,5,28.4,5,27.8c0-3.8,0-7.7,0-11.4v-4.1C4.9,11.1,5.8,10,7,9.9c0.1,0,0.3,0,0.4,0h8.6c1.2-0.1,2.2,0.8,2.3,2
	c0,0.1,0,0.3,0,0.4v15.6c0.1,1.2-0.7,2.2-1.9,2.4c-0.1,0-0.3,0-0.4,0h-3.1C11.1,30.2,9.2,30.2,7.3,30.2L7.3,30.2z M11.9,10.4H7.3
	c-0.9-0.1-1.8,0.6-1.9,1.5c0,0.1,0,0.3,0,0.4v4.1c0,3.8,0,7.6,0,11.4c0,0.5,0.2,1,0.5,1.4c0.4,0.3,0.8,0.5,1.3,0.5l0,0
	c1.8,0,3.7,0,5.5,0h3.1c0.9,0.1,1.7-0.5,1.9-1.4c0-0.1,0-0.3,0-0.5V12.2c0.1-0.9-0.5-1.7-1.5-1.8c-0.1,0-0.2,0-0.4,0L11.9,10.4z"/>
</svg>
