<?xml version="1.0" encoding="utf-8"?>
<!-- Generator: Adobe Illustrator 23.0.3, SVG Export Plug-In . SVG Version: 6.00 Build 0)  -->
<svg version="1.1" id="Layer_1" xmlns="http://www.w3.org/2000/svg" xmlns:xlink="http://www.w3.org/1999/xlink" x="0px" y="0px"
	 viewBox="0 0 48 48" style="enable-background:new 0 0 48 48;" xml:space="preserve">
<style type="text/css">
	.st0{fill:#006CFF;}
</style>
<path class="st0" d="M22.1,23.9c0.6,0.1,1.1,0.2,1.7,0.2c2.1,0,4.1,0,6.2,0c1.6,0,2.1-0.8,1.7-2.3c1.7-0.3,2.1-0.9,1.7-2.3l0.8-0.2
	c0.4,1,0.7,2,1.2,3c0.9,1.8,1.9,3.5,2.8,5.3c1.2,2.1,1.8,4.5,1.8,7c0.1,6-4.7,11-10.7,11.1c-5.4,0.1-10.1-3.8-11-9.1
	c-0.5-2.7-0.1-5.4,1.1-7.8C20.3,27.1,21.2,25.5,22.1,23.9z M29.1,39.6c2.5,0,4.5-2,4.5-4.4c0-2.5-2-4.5-4.4-4.5
	c-2.5,0-4.5,2-4.5,4.4c0,0,0,0,0,0C24.7,37.5,26.6,39.5,29.1,39.6L29.1,39.6z M26.7,42.9c0.2-0.1,0.4-0.2,0.4-0.3
	c0-0.1-0.1-0.3-0.2-0.4c-0.1-0.1-0.3-0.1-0.4-0.2c-0.8-0.4-1.6-0.9-2.4-1.4c-1.2-1-2.2-2.4-2.7-3.9c-0.1-0.2-0.2-0.5-0.5-0.4
	s-0.2,0.4-0.1,0.6c0.6,1.9,1.9,3.5,3.5,4.7C25.1,42.1,26,42.5,26.7,42.9L26.7,42.9z"/>
<path class="st0" d="M24.5,12.9c0,0.5,0,1,0,1.5s0.2,0.6,0.6,0.6c3.2,0,6.4,0,9.6,0h0.4c0.4,0,0.8,0.4,0.8,0.8
	c0,0.4-0.3,0.8-0.7,0.8c0,0,0,0,0,0c-0.5,0-1,0-1.5,0c-0.2,0-0.3,0.2-0.5,0.3c0.1,0.1,0.2,0.3,0.4,0.4c0.4,0.1,0.7,0.5,0.7,0.9
	c0,0.4-0.4,0.8-0.9,0.7c-0.4,0-0.8,0-1.1,0c-0.1,0-0.3,0.2-0.4,0.3c0.1,0.1,0.2,0.3,0.3,0.3c0.6,0.2,0.8,0.5,0.8,1s-0.4,0.7-1,0.7
	c-0.5,0-0.9,0-1.3,0c-0.1,0-0.3,0.2-0.4,0.3c0.1,0.1,0.2,0.3,0.3,0.3c0.6,0.2,0.8,0.5,0.8,1s-0.4,0.7-1,0.7c-2.3,0-4.6,0-6.9,0
	c-0.5-0.1-0.9-0.3-1.3-0.6c-0.1,0-0.1-0.2-0.1-0.3v-7.4c0-0.1,0-0.3,0.1-0.3c0.4-0.1,0.5-0.4,0.6-0.7C22.9,13.4,23.6,12.9,24.5,12.9
	z"/>
<path class="st0" d="M17.2,23H8v-7.6h9.2L17.2,23z"/>
<path class="st0" d="M25.1,14.3l0.3-5.4h1.3V7.4c0-0.8,0-1.5,0-2.3c0-0.1,0.2-0.3,0.3-0.4c0.1,0.1,0.3,0.3,0.3,0.4
	c0,1.2,0,2.4,0,3.6h0.9c0-0.2,0-0.3,0-0.5V2.8c0-0.1,0-0.3,0-0.4c0.1-0.1,0.2-0.2,0.3-0.2c0.1,0,0.2,0.1,0.3,0.3c0,0.1,0,0.3,0,0.4
	v6H30V6c0-0.3-0.1-0.7,0.3-0.7s0.3,0.4,0.3,0.7c0,1,0,1.9,0,2.9h2.1l0.3,5.4L25.1,14.3z"/>
<path class="st0" d="M17.9,14.9h3.4v8.6h-3.4V14.9z M20.5,21.8c0-0.5-0.4-1-0.9-1c0,0-0.1,0-0.1,0c-0.5,0-0.9,0.4-1,0.9
	c0,0.5,0.4,1,1,1C20,22.7,20.4,22.3,20.5,21.8z"/>
<path class="st0" d="M29.1,38.9c-2.1,0-3.8-1.7-3.8-3.8s1.7-3.8,3.8-3.8s3.8,1.7,3.8,3.8S31.2,38.9,29.1,38.9z M30.2,33.9
	C30.2,33.9,30.2,33.8,30.2,33.9c-0.2-0.6-0.6-1-1.1-1.2c-0.1,0-0.1,0-0.2,0.1c-0.1,0.1-0.2,0.2-0.3,0.3c-0.4,0.1-0.7,0.5-0.7,0.9
	c-0.1,0.4,0.2,0.9,0.5,1.1c0.5,0.3,0.6,0.6,0.4,1.3l-0.4-0.5l-0.6,0.1c0,0.6,0.4,1,1,1.1l0.4,0.5l0.3-0.5c0.6-0.1,1-0.6,1-1.1
	c0.1-0.6-0.3-1.1-0.9-1.2c-0.1-0.1-0.2-0.1-0.2-0.3c0-0.3,0-0.5,0-0.8l0.1-0.1C29.6,34.1,29.9,34,30.2,33.9z"/>
<path class="st0" d="M20,21.7c-0.2,0.2-0.3,0.3-0.5,0.3s-0.3-0.2-0.3-0.3s0.1-0.3,0.3-0.4S19.8,21.6,20,21.7z"/>
<path class="st0" d="M29.3,36.3v-0.9l0.1-0.1c0.1,0.1,0.3,0.3,0.3,0.4c0,0.2-0.1,0.4-0.2,0.6L29.3,36.3z"/>
<path class="st0" d="M28.9,33.6v0.8C28.5,34.2,28.4,34,28.9,33.6z"/>
</svg>
