<?xml version="1.0" encoding="utf-8"?>
<!-- Generator: Adobe Illustrator 23.0.3, SVG Export Plug-In . SVG Version: 6.00 Build 0)  -->
<svg version="1.1" id="Layer_1" xmlns="http://www.w3.org/2000/svg" xmlns:xlink="http://www.w3.org/1999/xlink" x="0px" y="0px"
	 viewBox="0 0 48 48" style="enable-background:new 0 0 48 48;" xml:space="preserve">
<style type="text/css">
	.st0{fill:#006CFF;}
</style>
<path class="st0" d="M16.7,2.2l0.3,0.1c2,0.4,3.3,2.4,2.9,4.5c-0.4,2-2.4,3.3-4.5,2.9c-2-0.4-3.3-2.4-2.9-4.5
	c0.3-1.4,1.4-2.6,2.9-2.9l0.3-0.1H16.7z"/>
<path class="st0" d="M19.4,11.2c-2.4,1.6-3.7,4.4-3.6,7.3h-0.4H9.1c-0.6,0-0.6-0.1-0.4-0.6c0.1-0.3,0.1-0.6,0.1-0.9
	c0.6-4.1,4.4-7,8.5-6.4c0.7,0.1,1.3,0.3,1.9,0.5L19.4,11.2z"/>
<path class="st0" d="M22.5,45.8c-0.9-0.1-1.8-0.2-2.6-0.3c-0.7-0.2-1.4-0.4-2-0.7c-0.5-0.2-0.8-0.7-0.7-1.2c0-1.3,0-2.5,0-3.8
	c0-0.3-0.1-0.6-0.2-0.9C13.3,32.3,9.6,25.7,6,19.2c-0.4-0.7-0.5-1.2,0.5-1.9C6.7,17.1,7,17,7.2,16.8c0.2-0.1,0.5-0.2,0.7-0.3
	c0.1,0.6,0.1,0.7-0.4,0.9c-0.3,0.1-0.6,0.3-0.9,0.5c-0.2,0.1-0.3,0.4-0.2,0.6c0,0.1,0.1,0.1,0.2,0.2C7,19,7.4,19.2,7.8,19.4
	c1.9,0.7,3.9,1.1,5.8,1.3c5.4,0.6,10.8,0.8,16.3,0.4c3.3-0.1,6.6-0.6,9.7-1.5c0.5-0.2,1.1-0.4,1.5-0.7c0.5-0.3,0.5-0.6,0-1
	c-0.2-0.2-0.5-0.3-0.8-0.4c-0.5-0.1-0.6-0.5-0.5-0.9c0.8,0.2,1.4,0.6,2,1.1c0.3,0.3,0.4,0.9,0.1,1.3c-3.7,6.7-7.5,13.3-11.2,20
	c-0.1,0.2-0.2,0.5-0.2,0.8c0,1.3,0,2.6,0,3.9c0,0.5-0.2,0.9-0.6,1.1c-0.8,0.4-1.7,0.7-2.6,0.8c-0.7,0.1-1.4,0.2-2.1,0.3L22.5,45.8z
	 M17.7,39.1c0.2-0.5,0.7-0.8,1.2-0.9c1.6-0.5,3.2-0.7,4.9-0.7c0.3,0,0.5,0,0.5-0.3s-0.3-0.4-0.5-0.3c-1,0.1-1.9,0.1-2.8,0.2
	c-1,0.1-2.1,0.4-3,0.8c-0.6,0.4-0.6,0.4-0.3,1C17.7,38.9,17.7,39,17.7,39.1c0,0,0.1,0.1,0.1,0.2c-0.1,0.7,0.3,1,0.9,1.1
	c0.2,0.1,0.4,0.1,0.6,0.2c1.9,0.5,3.8,0.7,5.7,0.6c1.5,0,3-0.2,4.5-0.6c0.7-0.2,0.7-0.3,0.6-1c-0.3,0.2-0.7,0.3-1.1,0.4
	c-2.2,0.5-4.4,0.6-6.7,0.4C20.6,40.4,19,39.9,17.7,39.1z M14.9,33.8c0.3,0.8,0.3,0.8,1,0.9c2.6,0.5,5.2,0.7,7.8,0.7
	c2.6,0,5.1-0.3,7.6-0.8c1-0.1,1.8-0.7,2.1-1.7c0,0,0,0,0-0.1c0.1-0.1,0.1-0.3,0-0.4c0,0-0.1-0.1-0.1-0.1c-0.4-0.3-0.8-0.6-1.3-0.7
	c-1.3-0.4-2.7-0.6-4-0.8c-1.5-0.2-3-0.2-4.6-0.3c-0.3,0-0.6,0-0.6,0.3s0.4,0.3,0.6,0.3h0.7c2.1,0,4.2,0.2,6.3,0.7
	c0.7,0.2,1.4,0.4,2.1,0.8c0.4,0.2,0.4,0.5,0,0.7c-0.4,0.2-0.8,0.4-1.2,0.5c-2,0.5-4,0.8-6,0.9c-2.8,0.2-5.5,0-8.3-0.4
	C16.5,34.2,15.7,34,14.9,33.8z M36.7,27.1c-0.7,0.2-1.4,0.4-2,0.5c-3.4,0.6-6.8,0.9-10.3,0.8c-3.2,0-6.3-0.2-9.5-0.7
	c-1.4-0.2-2.7-0.5-4-1.1c0.2,0.7,0.7,1.1,1.4,1.3c2.8,0.7,5.7,1.1,8.6,1.1c2.8,0.1,5.7,0,8.5-0.1c2.1-0.1,4.2-0.4,6.2-0.9
	C36.2,27.9,36.6,27.6,36.7,27.1z M10.6,26c0.5-0.2,0.9-0.5,1.4-0.6c0.5-0.2,1-0.3,1.6-0.4C17,24.3,20.5,24,23.9,24
	c0.2,0,0.3,0,0.5,0c0.1-0.1,0.2-0.2,0.3-0.3c0-0.1-0.1-0.3-0.3-0.3c-0.1,0-0.3,0-0.4,0c-2.3,0.1-4.5,0.2-6.8,0.4
	c-1.8,0.1-3.6,0.4-5.3,1c-0.6,0.2-1.1,0.5-1.7,0.8L10.6,26z M21.1,30.8c-0.2-0.2-0.3-0.4-0.4-0.4c-0.2,0-0.3,0.2-0.4,0.3
	c0,0.1,0.2,0.3,0.3,0.3S20.8,31,21.1,30.8L21.1,30.8z M21.9,30.3c-0.2,0.2-0.3,0.4-0.3,0.5s0.2,0.2,0.3,0.3c0.1-0.1,0.3-0.2,0.3-0.3
	S22.1,30.6,21.9,30.3L21.9,30.3z M25.9,37.1c-0.2-0.2-0.4-0.3-0.5-0.3s-0.2,0.2-0.3,0.3c0.1,0.1,0.2,0.3,0.3,0.3
	S25.6,37.3,25.9,37.1L25.9,37.1z M26.7,37.6c0.2-0.2,0.3-0.3,0.3-0.4c0-0.2-0.2-0.3-0.3-0.3c-0.1,0-0.3,0.2-0.3,0.3
	S26.6,37.4,26.7,37.6L26.7,37.6z M25.7,24.1c0.2-0.2,0.3-0.4,0.3-0.5c0-0.2-0.2-0.3-0.3-0.3c-0.1,0-0.3,0.2-0.3,0.3
	S25.5,23.9,25.7,24.1L25.7,24.1z M27.6,23.6c-0.2-0.1-0.4-0.3-0.5-0.3s-0.2,0.2-0.3,0.3c0.1,0.1,0.2,0.3,0.4,0.3
	S27.3,23.8,27.6,23.6L27.6,23.6z"/>
<path class="st0" d="M24.5,2.2l0.3,0.1c2,0.4,3.3,2.4,2.9,4.5c-0.4,2-2.4,3.3-4.5,2.9c-2-0.4-3.3-2.4-2.9-4.5
	c0.3-1.4,1.4-2.6,2.9-2.9l0.3-0.1H24.5z"/>
<path class="st0" d="M32.4,2.2l0.3,0.1c2,0.4,3.3,2.4,2.9,4.5c-0.4,2-2.4,3.3-4.5,2.9c-2-0.4-3.3-2.4-2.9-4.5
	c0.3-1.4,1.4-2.6,2.9-2.9l0.3-0.1H32.4z"/>
<path class="st0" d="M31.8,18.5H25c-0.6,0-0.6,0-0.6-0.6c0.2-4.1,3.7-7.3,7.9-7.1c3.8,0.2,6.9,3.3,7.1,7.1c0,0.6,0,0.7-0.7,0.7
	L31.8,18.5z"/>
<path class="st0" d="M27.2,11.2c-2.4,1.7-3.7,4.4-3.5,7.3h-6.5c-0.7,0-0.7,0-0.7-0.7c0.1-4.2,3.6-7.4,7.8-7.3c0.9,0,1.8,0.2,2.6,0.6
	L27.2,11.2z"/>
</svg>
