<?xml version="1.0" encoding="utf-8"?>
<!-- Generator: Adobe Illustrator 23.0.3, SVG Export Plug-In . SVG Version: 6.00 Build 0)  -->
<svg version="1.1" id="Layer_1" xmlns="http://www.w3.org/2000/svg" xmlns:xlink="http://www.w3.org/1999/xlink" x="0px" y="0px"
	 viewBox="0 0 48 48" style="enable-background:new 0 0 48 48;" xml:space="preserve">
<style type="text/css">
	.st0{fill:#006CFF;}
</style>
<path class="st0" d="M2.1,35.5c0.3-0.9,0.6-1.8,0.8-2.8c1-3.6,2-7.2,3.1-10.7c0.2-0.8,0.7-1,1.5-0.8c2,0.6,4,1.1,6,1.7
	c0.3,0.1,0.6,0.3,0.9,0.5c0.1,0.1,0.2,0.1,0.3,0.1l5.6-0.3c0.1,0,0.2,0,0.3-0.1c2.2-1.2,4.8-1.3,7.1-0.4c1.4,0.5,2.8,1.1,4.2,1.7
	c0.6,0.2,1.3,0,1.7-0.5c0.2-0.2,0.4-0.4,0.6-0.5c2.2-0.6,4.4-1.3,6.5-1.9c0.5-0.2,1.1,0.2,1.2,0.7c0,0,0,0,0,0.1
	c1.3,4.4,2.5,8.9,3.8,13.3c0.3,1,0.1,1.3-0.9,1.6l-6,1.7C38,39.1,37.7,39,37.4,38c0-0.1-0.1-0.1-0.1-0.2L36,38.1
	c-0.2,1.3-1.3,2.2-2.6,2.2c0,0.9-0.3,1.7-1,2.2c-0.7,0.5-1.6,0.7-2.4,0.6c-0.3,1-1.1,1.8-2.2,2.1c-1.1,0.2-2.2-0.2-2.9-1
	c-0.2,0.8-0.8,1.3-1.6,1.5c-1,0.3-2.1,0.1-2.9-0.6c-2.2-1.9-4.4-3.7-6.5-5.7c-1-0.9-1.9-2-2.8-3c-0.1-0.1-0.1-0.2-0.1-0.3
	c-0.2,0.7-0.3,1.1-0.5,1.6c-0.1,0.5-0.5,0.9-1,0.8c-0.1,0-0.2,0-0.3-0.1l-6.3-1.8c-0.4-0.1-0.7-0.3-0.9-0.7V35.5z M18.1,25.2
	L18,25.1l-3.6,0.4c-0.2,0-0.5,0.2-0.5,0.4c-0.7,2.6-1.4,5.1-2.2,7.7c-0.1,0.2,0,0.5,0.1,0.7c0.3,0.5,0.7,1.1,1.1,1.5
	c1.6,1.8,3.4,3.5,5.3,5.1c1.2,1,2.4,2,3.6,2.9c0.6,0.5,0.9,0.4,1.3-0.1c0.3-0.3,0.2-0.8-0.1-1c0,0,0,0-0.1-0.1
	c-0.5-0.5-1.1-1-1.6-1.5c-0.4-0.3-0.4-0.9,0-1.3c0,0,0,0,0,0c0.3-0.4,0.9-0.4,1.3-0.1c0.2,0.1,0.3,0.3,0.5,0.5l3.5,3
	c0.4,0.3,0.9,0.3,1.3,0c0.3-0.4,0.3-0.9,0-1.3c-0.2-0.3-0.5-0.5-0.8-0.7l-2.6-2.1c-0.5-0.3-0.6-0.9-0.3-1.4c0,0,0,0,0,0
	c0.3-0.4,0.9-0.4,1.3-0.1c0,0,0.1,0.1,0.1,0.1l3.7,3.1c0.2,0.2,0.4,0.4,0.6,0.5c0.4,0.3,0.9,0.1,1.2-0.3c0.3-0.3,0.4-0.8,0.1-1.2
	c0,0,0,0-0.1-0.1c-0.3-0.3-0.5-0.5-0.8-0.7l-3.2-2.7c-0.3-0.2-0.5-0.6-0.3-1c0.1-0.4,0.4-0.6,0.8-0.7c0.3,0,0.6,0.1,0.9,0.3
	c1.3,1.1,2.6,2.2,3.9,3.3c0.3,0.4,0.8,0.4,1.2,0.1c0,0,0.1-0.1,0.1-0.1c0.6-0.6,0.5-1.1-0.2-1.7l-8.5-6.9c-0.2-0.2-0.5-0.3-0.8-0.2
	c-0.3,0.1-0.7,0.2-1,0.2c-0.3,0-0.6,0.2-0.8,0.5c-0.7,1-1.6,1.7-2.7,2.3c-1.2,0.7-2.7,0.3-3.4-0.9c-0.2-0.3-0.3-0.7-0.3-1
	c-0.2-1.8,0.3-3.6,1.4-5L18.1,25.2z M34,26c-0.5,0.1-0.9,0.3-1.3,0.4c-0.4,0.1-0.8,0.1-1.1-0.1c-0.7-0.4-1.5-0.7-2.3-1
	c-1.4-0.7-2.9-1.1-4.5-1.3c-3.2-0.1-6,2-6.7,5.1c-0.1,0.4-0.1,0.7,0,1.1c0,0.5,0.4,0.8,0.9,0.8c0.2,0,0.3-0.1,0.5-0.2
	c0.3-0.1,0.5-0.3,0.7-0.5c0.4-0.4,0.8-0.9,1.2-1.3c0.4-0.5,1.1-0.9,1.8-1.1c0.5-0.1,1.1-0.2,1.6-0.4c0.4-0.1,0.8-0.1,1.1,0.2
	l9.1,7.4c0.2,0.2,0.4,0.4,0.6,0.6c0.4,0.5,0.6,0.6,1.2,0.2L34,26z M12.5,24.5l-4.9-1.4L4.1,35.2L9,36.6L12.5,24.5z M40.5,23.5
	l-4.9,1.4c1.2,4,2.3,8,3.4,12.1l4.9-1.4L40.5,23.5z"/>
<path class="st0" d="M24.2,2.2c5,0.1,8.9,4.1,9,9.1c-0.1,4.9-4.1,8.9-9,9c-5-0.1-8.9-4.1-9-9.1C15.3,6.2,19.3,2.3,24.2,2.2z
	 M17,11.2c-0.1,3.9,2.9,7.1,6.8,7.2c0.1,0,0.3,0,0.4,0c3.9,0.1,7.1-3,7.2-6.9c0-0.1,0-0.2,0-0.3c0.1-3.9-2.9-7.1-6.8-7.2
	c-0.1,0-0.3,0-0.4,0c-3.9-0.1-7.1,2.9-7.2,6.8C17,10.9,17,11.1,17,11.2z"/>
<path class="st0" d="M23.2,16.4c-0.8-0.5-1.6-0.9-2.4-1.3c-0.2-0.2-0.4-0.4-0.5-0.7c-0.1-0.4,0.1-0.7,0.5-0.9
	c0.3-0.2,0.8-0.1,1.1,0.1c0.7,0.6,1.6,1,2.6,0.9c0.5,0,0.9-0.2,1.1-0.7c0.3-0.5,0.2-1.1-0.3-1.4c-0.1,0-0.1-0.1-0.2-0.1
	c-0.4-0.2-0.8-0.3-1.2-0.5c-0.7-0.2-1.3-0.5-1.9-0.9c-1.2-0.7-1.7-2.2-1.1-3.4c0.1-0.2,0.3-0.5,0.5-0.6c0.4-0.4,1-0.8,1.5-1.1
	c0.2-0.1,0.3-0.2,0.3-0.4c-0.1-0.5,0.3-1,0.8-1s1,0.3,1,0.8c0,0.1,0,0.2,0,0.3c0,0.2,0.1,0.4,0.3,0.4c0.6,0.2,1.2,0.6,1.6,1.2
	c0.3,0.4,0.3,0.9,0,1.3c0,0,0,0-0.1,0.1c-0.4,0.3-0.9,0.3-1.3-0.1c0,0,0-0.1-0.1-0.1c-0.5-0.7-1.4-0.9-2.2-0.6
	c-0.5,0.1-0.9,0.6-0.9,1.1c0,0.4,0.1,0.7,0.7,1s1,0.3,1.4,0.5c0.6,0.2,1.2,0.5,1.8,0.9c1.2,0.7,1.6,2.3,0.8,3.5
	c-0.1,0.1-0.2,0.2-0.2,0.3c-0.4,0.6-1,1-1.6,1.3c-0.1,0.1-0.3,0.2-0.3,0.4c-0.1,0.7-0.4,1.1-1,1S23.2,17.2,23.2,16.4
	C23.2,16.5,23.2,16.4,23.2,16.4z"/>
</svg>
