<?xml version="1.0" encoding="utf-8"?>
<!-- Generator: Adobe Illustrator 23.0.3, SVG Export Plug-In . SVG Version: 6.00 Build 0)  -->
<svg version="1.1" id="Layer_1" xmlns="http://www.w3.org/2000/svg" xmlns:xlink="http://www.w3.org/1999/xlink" x="0px" y="0px"
	 viewBox="0 0 48 48" style="enable-background:new 0 0 48 48;" xml:space="preserve">
<style type="text/css">
	.st0{fill:#006CFF;}
</style>
<path class="st0" d="M26,42.6c0,0.4,0,1,0,1.5c0,1.1-0.9,2-2,2s-2-0.9-2-2c0-0.5,0-1.1,0-1.6C12.6,40.8,7.1,35.3,5.3,26H4
	c-1.1,0-2-0.9-2-2s0.9-2,2-2c0.4,0,0.9,0,1.3,0c0.3-1.2,0.4-2.3,0.7-3.4c2.1-7.1,8.2-12.3,15.5-13.3c0.3,0,0.4-0.2,0.4-0.5
	s0-0.7,0-1c0-1.1,0.9-2,2-2s2,0.9,2,2c0,0.5-0.1,1.1,0.1,1.4s0.9,0.2,1.3,0.3c7.7,1.5,13.6,7.6,14.9,15.3l0.1,0.3
	c0.2,0.9,0.2,0.9,1,0.9c0.2,0,0.5,0,0.7,0c1.1,0,2,0.9,2,2s-0.9,2-2,2c-0.5,0-1.1,0-1.5,0c-0.5,1.7-1,3.3-1.4,4.8
	c-0.1,0.2-0.2,0.5-0.3,0.7c-0.2,0.4-0.1,0.7,0.3,0.9l1-1l0.8,0.9c-0.3,0.3-0.6,0.5-0.9,0.8c-0.2,0.1-0.3,0.5-0.2,0.7c0,0,0,0,0,0
	c1.5,3.3-0.1,7.2-3.4,8.7c-0.9,0.4-1.8,0.6-2.8,0.5c-1.6,0-3.2-0.6-4.3-1.7c-0.2-0.2-0.5-0.3-0.8-0.1C29.2,41.7,27.6,42.1,26,42.6z
	 M20.9,27.7c-3.4-1.7-5.1-5.7-3.7-9.4c1.3-3.8,5.5-5.8,9.2-4.5c2.2,0.8,4,2.6,4.6,4.9c1.1,3.6-0.6,7.4-3.9,9
	c1.9,0.7,3.5,2.1,4.5,3.8c1.4-1.2,3.3-1.8,5.1-1.6c0.1,0,0.2-0.1,0.3-0.2c0.5-1.2,0.9-2.4,1-3.6c-1.6-0.3-2.3-0.9-2.3-2.1
	s0.7-1.8,2.3-2c-0.4-2.8-1.6-5.4-3.5-7.6c-2.2-2.5-5.2-4.1-8.5-4.6c-0.2,1.8-0.8,2.5-2,2.5s-1.8-0.6-2.1-2.5
	c-6.3,0.9-11.2,5.9-12,12.2c1.6,0.2,2.4,0.8,2.4,1.9c0,0.5-0.1,0.9-0.4,1.3c-0.5,0.6-1.2,0.9-1.9,0.8c-0.1,2.6,3.1,8,5.3,9
	C15.6,31.7,17.8,28.9,20.9,27.7z M22.5,17.7c-2,1.7-2,1.7-4.3,2.2C18.1,19.9,18,20,18,20.2c0,0.5,0,1,0,1.5c0.3,3.3,3.3,5.7,6.6,5.4
	c0.1,0,0.3,0,0.4-0.1c3.1-0.5,5.3-3.3,5-6.5c0-0.7,0-0.7-0.7-0.7c-0.5,0-0.9,0-1.4,0C25.8,20.1,23.8,19.2,22.5,17.7L22.5,17.7z
	 M40.3,33.3c-1.8-2.4-5.1-2.9-7.5-1.1c-2.4,1.8-2.9,5.1-1.1,7.5c1.8,2.4,5.1,2.9,7.5,1.1c0,0,0,0,0,0c2.3-1.7,2.6-4.9,1.7-6.3
	l-0.4,0.3l-4.3,4.1c-0.5,0.5-0.8,0.5-1.3,0s-0.7-0.7-1.1-1.1l-1.5-1.4l1-1.1l2.3,2.5L40.3,33.3z M22,6.5c-3.9,0.4-7.6,2.1-10.3,4.9
	C8.8,14.2,7,18,6.6,22c0.6,0,1.1,0,1.6,0c0.3,0,0.4-0.1,0.4-0.4c0.2-1.8,0.8-3.6,1.8-5.2c2.3-4.2,6.4-7.2,11.2-7.9
	c0.1,0,0.4-0.2,0.4-0.3C22,7.7,22,7.1,22,6.5z M6.6,26c0.5,4.4,2.8,8.4,6.2,11.2c2.6,2.2,5.8,3.6,9.1,3.8v-1.8L20.5,39
	c-6.1-1.4-10.7-6.3-11.8-12.4C8.6,26.2,8.5,26,8.1,26S7.2,26,6.6,26z M26,6.5v1.1c0,0.8,0,0.8,0.8,1c6.2,1.2,11.1,5.9,12.4,12.1
	c0.3,1.3,0.3,1.3,1.6,1.3c0.5,0,0.6-0.2,0.5-0.6C39.9,14,35.6,9.2,28.4,7C27.7,6.8,26.9,6.7,26,6.5z M22.8,15c0.1,0.8,0.5,1.5,1,2
	c1.5,1.9,3.6,1.5,5.7,1.5C28.5,15.8,25.6,14.3,22.8,15z M24.8,7.1V5.5c0-0.5,0-1,0-1.5S24.5,3.1,24,3.1S23.3,3.4,23.3,4v6
	c0,0.1,0,0.2,0,0.3c0.1,0.4,0.3,0.7,0.7,0.7c0.4,0,0.8-0.3,0.8-0.8c0-0.1,0-0.2,0-0.4L24.8,7.1z M7.1,24.8H10c0.7,0,1-0.3,1-0.8
	s-0.4-0.7-1-0.8H4c-0.6,0-1,0.4-0.9,0.9s0.5,0.6,0.9,0.6H7.1z M40.9,23.2h-3c-0.6,0-0.9,0.3-0.9,0.8s0.4,0.7,0.9,0.7H44
	c0.7,0,1-0.4,0.9-1c-0.1-0.4-0.5-0.6-0.9-0.5L40.9,23.2z M24.8,41c0-1,0-2,0-3c0-0.6-0.3-1-0.8-1s-0.8,0.4-0.8,1v5.9
	c0,0.6,0.3,1,0.8,1s0.8-0.3,0.8-1C24.8,42.9,24.8,41.9,24.8,41z M22.3,28.6c-0.1,0-0.2,0-0.3,0c-3.2,0.9-5.5,3.7-5.6,7
	c0,0.1,0.1,0.3,0.2,0.4c0.4,0.2,0.8,0.5,1.3,0.7C17.6,33.4,19.3,30.2,22.3,28.6z M39.8,31c0.7-1.6,1.2-3.2,1.4-5c-0.6,0-1.2,0-1.7,0
	c-0.1,0-0.2,0.2-0.3,0.3c-0.2,0.9-0.5,1.7-0.7,2.6c-0.1,0.4-0.3,0.8-0.4,1.1L39.8,31z M29.5,38.5l-3.3,0.8c-0.1,0-0.2,0.1-0.2,0.2
	c0,0.6,0,1.1,0,1.7c1.5-0.2,2.9-0.5,4.2-1.1L29.5,38.5z M24,31.5c-0.3,0.6-0.6,1.1-0.9,1.7c0,0.1,0,0.2,0,0.3c0.2,0.7,0.4,1.3,0.6,2
	c0,0.1,0.3,0.1,0.4,0.2c0.3-0.8,0.5-1.6,0.7-2.4c0,0,0-0.1,0-0.1L24,31.5z M18.5,18.5c1.2-0.1,2.2-0.7,2.9-1.7c0.4-0.4,0.4-1,0-1.4
	c0,0,0,0,0,0C20,16,19,17.2,18.5,18.5L18.5,18.5z M24.3,28.4h-0.7L24,29c0.1-0.1,0.1-0.2,0.2-0.3L24.3,28.4z"/>
<path class="st0" d="M30.6,13.5l0.6-1c3,1.9,5.1,4.9,5.9,8.3l-1.2,0.3C35.2,18,33.3,15.3,30.6,13.5z"/>
<path class="st0" d="M28.1,11l1.9,0.8l-0.5,1.1l-1.7-0.7L28.1,11z"/>
</svg>
