<?xml version="1.0" encoding="utf-8"?>
<!-- Generator: Adobe Illustrator 23.0.3, SVG Export Plug-In . SVG Version: 6.00 Build 0)  -->
<svg version="1.1" id="d5fa10c1-a268-47d3-9151-2b1beca496df"
	 xmlns="http://www.w3.org/2000/svg" xmlns:xlink="http://www.w3.org/1999/xlink" x="0px" y="0px" viewBox="0 0 48 48"
	 style="enable-background:new 0 0 48 48;" xml:space="preserve">
<style type="text/css">
	.st0{fill:#006CFF;}
</style>
<title>Lost to Competition</title>
<path class="st0" d="M46.2,22.8v2.4c-0.1,0.8-0.2,1.5-0.3,2.3c-0.7,4.6-2.9,8.9-6.2,12.1c-3.4,3.5-7.8,5.7-12.6,6.4l-2,0.3h-2.4
	c-0.1,0-0.3-0.1-0.4-0.1c-0.6-0.1-1.2-0.1-1.9-0.2c-4.6-0.7-8.9-2.9-12.2-6.2C4.9,36.4,2.7,32,2,27.2c-0.1-0.6-0.2-1.3-0.3-2v-2.4
	C1.8,22,1.9,21.3,2,20.5c0.7-4.6,2.9-8.9,6.2-12.2C11.6,4.9,16,2.7,20.8,2l2-0.3h2.4c0.1,0,0.3,0.1,0.4,0.1c0.6,0.1,1.2,0.1,1.9,0.2
	c4.6,0.7,8.8,2.9,12.1,6.2c3.5,3.4,5.7,7.8,6.4,12.6C46.1,21.5,46.2,22.1,46.2,22.8z M24,45.2c11.7,0,21.2-9.5,21.2-21.2
	S35.7,2.8,24,2.8S2.8,12.3,2.8,24l0,0C2.8,35.7,12.3,45.2,24,45.2z"/>
<path class="st0" d="M22.8,46.6h-0.2h-0.3l-0.6-0.1c-0.4,0-0.8-0.1-1.2-0.1C10.7,44.8,3,37.1,1.6,27.2l-0.2-1.4l-0.1-0.6v-2.5
	L1.5,22c0.1-0.5,0.1-1,0.2-1.6C3.3,10.7,11,3.1,20.8,1.6l1.4-0.2l0.6-0.1h2.5l0.2,0h0.2l0.6,0.1c0.4,0,0.8,0.1,1.2,0.1
	c9.8,1.6,17.4,9.3,18.8,19.1l0.2,1.4l0.1,0.6v2.4l-0.1,0.8c-0.1,0.5-0.1,1-0.2,1.6c-1.6,9.8-9.3,17.4-19.1,18.8l-1.4,0.2l-0.6,0.1
	L22.8,46.6z M25.1,2.1h-2.4l-0.6,0.1c-0.4,0.1-0.9,0.1-1.3,0.2C11.4,3.8,3.9,11.1,2.4,20.6c-0.1,0.5-0.1,1-0.2,1.5l-0.1,0.7v2.4
	l0.1,0.5c0,0.5,0.1,0.9,0.2,1.4c1.4,9.5,8.7,16.9,18.2,18.4c0.4,0.1,0.8,0.1,1.2,0.1l0.7,0.1l0.3,0.1h0.1h2.4l0.5-0.1
	c0.5,0,0.9-0.1,1.4-0.2c9.5-1.4,16.9-8.7,18.4-18.2c0.1-0.5,0.1-1,0.2-1.5l0.1-0.7v-2.4l-0.1-0.6c0-0.5-0.1-0.9-0.2-1.4
	c-1.4-9.5-8.7-16.9-18.2-18.4c-0.4-0.1-0.8-0.1-1.2-0.1l-0.7-0.1l-0.3-0.1L25.1,2.1z M24,45.6L24,45.6C12.1,45.6,2.4,35.9,2.4,24
	C2.4,12.1,12.1,2.4,24,2.4l0,0c11.9,0,21.6,9.7,21.6,21.6C45.6,35.9,35.9,45.6,24,45.6z M24,3.2C12.5,3.2,3.2,12.5,3.2,24
	c0,11.5,9.3,20.8,20.8,20.8c0,0,0,0,0,0l0,0c11.5,0,20.8-9.3,20.8-20.8S35.5,3.2,24,3.2z"/>
<path class="st0" d="M19.4,20.9c0,2.1-1.7,3.9-3.9,3.9c-2.1,0-3.9-1.7-3.9-3.9c0-2.1,1.7-3.9,3.9-3.9c0,0,0.1,0,0.1,0
	C17.7,17.1,19.4,18.8,19.4,20.9z M12.7,20.9c0,1.6,1.3,2.9,2.9,2.9s2.9-1.3,2.9-2.9S17.2,18,15.6,18c0,0,0,0,0,0
	C14,18,12.7,19.3,12.7,20.9L12.7,20.9z"/>
<path class="st0" d="M15.5,25.1L15.5,25.1c-1.1,0-2.2-0.5-3-1.3c-1.7-1.7-1.6-4.4,0-6c0.8-0.8,1.9-1.2,3-1.2h0.1
	c2.3,0.1,4.2,2,4.2,4.3C19.8,23.2,17.9,25.1,15.5,25.1C15.5,25.1,15.5,25.1,15.5,25.1z M15.6,17.3c-1.9,0-3.5,1.5-3.6,3.4
	c0,0.9,0.3,1.9,1,2.5c0.6,0.6,1.5,1,2.4,1l0,0c1.9,0,3.5-1.6,3.5-3.5c0,0,0,0,0,0l0,0c0-0.9-0.4-1.8-1-2.5
	C17.3,17.7,16.4,17.3,15.6,17.3L15.6,17.3z M15.6,24.1L15.6,24.1c-1.8,0-3.2-1.5-3.2-3.3l0,0c0-1.8,1.5-3.3,3.3-3.3s3.3,1.5,3.3,3.3
	c0,0.9-0.4,1.7-1,2.3C17.2,23.8,16.4,24.1,15.6,24.1L15.6,24.1z M15.6,18.4c-1.4,0-2.5,1.1-2.5,2.5s1.1,2.5,2.5,2.5l0,0
	c0.7,0,1.3-0.3,1.8-0.8c0.5-0.5,0.7-1.1,0.7-1.8C18.1,19.5,16.9,18.4,15.6,18.4C15.5,18.4,15.5,18.4,15.6,18.4L15.6,18.4z"/>
<path class="st0" d="M36.3,20.9c0,2.1-1.7,3.9-3.9,3.9c-2.1,0-3.9-1.7-3.9-3.9c0-2.1,1.7-3.9,3.9-3.9c0,0,0.1,0,0.1,0
	C34.6,17.1,36.3,18.8,36.3,20.9z M32.5,18c-1.6,0-2.9,1.3-2.9,2.9s1.3,2.9,2.9,2.9c1.6,0,2.9-1.3,2.9-2.9c0,0,0,0,0,0
	C35.3,19.3,34,18,32.5,18C32.5,18,32.5,18,32.5,18z"/>
<path class="st0" d="M32.4,25.1L32.4,25.1c-1.1,0-2.2-0.5-3-1.3c-1.7-1.7-1.7-4.3,0-6c0.8-0.8,1.9-1.2,3.1-1.2
	c2.3,0.1,4.2,1.9,4.2,4.3l0,0C36.7,23.2,34.8,25.1,32.4,25.1C32.4,25.1,32.4,25.1,32.4,25.1z M32.5,17.3c-0.9,0-1.8,0.3-2.5,1
	c-0.7,0.7-1,1.6-1,2.5c0,0.9,0.4,1.8,1,2.5c0.6,0.7,1.5,1,2.4,1l0,0c1.9-0.2,3.4-1.9,3.2-3.8C35.5,18.9,34.2,17.6,32.5,17.3
	L32.5,17.3z M32.5,24.1c-1.8,0-3.3-1.5-3.3-3.3s1.5-3.3,3.3-3.3l0,0c1.8,0,3.3,1.5,3.3,3.3S34.3,24.1,32.5,24.1z M32.5,18.4
	c-1.4,0-2.5,1.1-2.5,2.5c0,0.7,0.3,1.3,0.8,1.8c1,1,2.5,1,3.5,0c0.5-0.5,0.8-1.1,0.7-1.8C35,19.5,33.9,18.4,32.5,18.4
	C32.5,18.4,32.5,18.4,32.5,18.4L32.5,18.4z"/>
<path class="st0" d="M31.8,34.8c-0.2-0.1-0.4-0.2-0.6-0.3c-2.2-1.4-4.7-2.2-7.3-2.2c-2.4,0-4.8,0.7-6.8,2l-0.4,0.3
	c-0.3,0.2-0.6,0.2-0.8-0.1c-0.2-0.2-0.1-0.5,0.1-0.7c0,0,0.1-0.1,0.1-0.1c1.1-0.6,2.1-1.2,3.3-1.7c4.2-1.5,8.8-0.9,12.5,1.6
	c0.1,0.1,0.3,0.2,0.3,0.3c0.1,0.2,0.1,0.3,0,0.5C32.1,34.5,31.9,34.6,31.8,34.8z"/>
<path class="st0" d="M31.8,35.2L31.4,35L31,34.8c-2.1-1.4-4.6-2.1-7.1-2.1c-2.3,0-4.6,0.7-6.6,2l-0.4,0.3c-0.2,0.2-0.5,0.2-0.8,0.2
	c-0.2-0.1-0.4-0.2-0.6-0.4c-0.1-0.2-0.2-0.4-0.1-0.7c0.1-0.2,0.3-0.5,0.5-0.6c0.3-0.2,0.6-0.3,0.9-0.5c0.8-0.5,1.6-0.8,2.4-1.2
	c4.3-1.6,9.1-0.9,12.8,1.6c0.2,0.1,0.3,0.2,0.4,0.4c0.1,0.3,0.1,0.5,0,0.8c-0.1,0.2-0.2,0.3-0.4,0.4L32,35L31.8,35.2z M24,31.6
	c-1.6,0-3.1,0.3-4.6,0.8c-0.8,0.3-1.6,0.7-2.3,1.1L16.2,34c-0.1,0-0.1,0.1-0.1,0.1c0,0,0,0.1,0,0.1c0,0.1,0.1,0.1,0.1,0.1
	s0.1,0,0.2-0.1l0.4-0.3c4.4-2.8,10.2-2.8,14.5,0.2l0.3,0.2l0,0c0,0,0.1-0.1,0.1-0.1c0-0.1,0-0.1,0-0.2c0,0-0.1,0-0.1,0
	C29.4,32.5,26.8,31.6,24,31.6z"/>
</svg>
