<svg width="13" height="11" viewBox="0 0 13 11" fill="none" xmlns="http://www.w3.org/2000/svg">
<path d="M5.37106 0.505402C5.06671 0.505402 4.77482 0.626305 4.55961 0.841513C4.34441 1.05672 4.2235 1.34861 4.2235 1.65296V2.03548H1.54587C1.24152 2.03548 0.949635 2.15638 0.734427 2.37159C0.519218 2.5868 0.398315 2.87868 0.398315 3.18303L0.398315 4.24185L6.22331 5.79487C6.41681 5.8464 6.62042 5.8464 6.81392 5.79487L12.6389 4.24185V3.18303C12.6389 2.87868 12.518 2.5868 12.3028 2.37159C12.0876 2.15638 11.7957 2.03548 11.4914 2.03548H8.81373V1.65296C8.81373 1.34861 8.69283 1.05672 8.47762 0.841513C8.26241 0.626305 7.97052 0.505402 7.66617 0.505402H5.37106ZM5.37106 1.27044H7.66617C7.76762 1.27044 7.86492 1.31074 7.93665 1.38248C8.00839 1.45421 8.04869 1.55151 8.04869 1.65296V2.03548H4.98854V1.65296C4.98854 1.55151 5.02884 1.45421 5.10058 1.38248C5.17231 1.31074 5.26961 1.27044 5.37106 1.27044Z" fill="#737373"/>
<path d="M0.398315 9.30333C0.398315 9.60768 0.519218 9.89956 0.734427 10.1148C0.949635 10.33 1.24152 10.4509 1.54587 10.4509H11.4914C11.7957 10.4509 12.0876 10.33 12.3028 10.1148C12.518 9.89956 12.6389 9.60768 12.6389 9.30333V4.98087L6.61731 6.58515C6.55265 6.60242 6.48459 6.60242 6.41993 6.58515L0.398315 4.98087V9.30333Z" fill="#737373"/>
</svg>
