<svg width="16" height="13" viewBox="0 0 16 13" fill="none" xmlns="http://www.w3.org/2000/svg">
<path d="M6.49009 0.388443C6.11604 0.388443 5.75731 0.537034 5.49282 0.801528C5.22833 1.06602 5.07973 1.42475 5.07973 1.7988V2.26892H1.7889C1.41485 2.26892 1.05612 2.41751 0.791624 2.68201C0.527131 2.9465 0.37854 3.30523 0.37854 3.67928L0.37854 4.98057L7.53752 6.88926C7.77533 6.95259 8.02557 6.95259 8.26338 6.88926L15.4224 4.98057V3.67928C15.4224 3.30523 15.2738 2.9465 15.0093 2.68201C14.7448 2.41751 14.3861 2.26892 14.012 2.26892H10.7212V1.7988C10.7212 1.42475 10.5726 1.06602 10.3081 0.801528C10.0436 0.537034 9.68486 0.388443 9.31081 0.388443H6.49009ZM6.49009 1.32868H9.31081C9.43549 1.32868 9.55507 1.37821 9.64324 1.46638C9.7314 1.55454 9.78093 1.67412 9.78093 1.7988V2.26892H6.01997V1.7988C6.01997 1.67412 6.0695 1.55454 6.15767 1.46638C6.24583 1.37821 6.36541 1.32868 6.49009 1.32868Z" fill="black"/>
<path d="M0.37854 11.2012C0.37854 11.5752 0.527131 11.934 0.791624 12.1985C1.05612 12.463 1.41485 12.6115 1.7889 12.6115H14.012C14.3861 12.6115 14.7448 12.463 15.0093 12.1985C15.2738 11.934 15.4224 11.5752 15.4224 11.2012V5.88884L8.02174 7.86052C7.94227 7.88174 7.85863 7.88174 7.77916 7.86052L0.37854 5.88884V11.2012Z" fill="black"/>
</svg>
