<svg width="17" height="19" viewBox="0 0 17 19" fill="none" xmlns="http://www.w3.org/2000/svg">
<path fill-rule="evenodd" clip-rule="evenodd" d="M11.3334 9.14398C11.3334 9.93963 11.0349 10.7027 10.5036 11.2653C9.9722 11.8279 9.25153 12.144 8.50008 12.144C7.74863 12.144 7.02797 11.8279 6.49661 11.2653C5.96526 10.7027 5.66675 9.93963 5.66675 9.14398C5.66675 8.34833 5.96526 7.58527 6.49661 7.02266C7.02797 6.46005 7.74863 6.14398 8.50008 6.14398C9.25153 6.14398 9.9722 6.46005 10.5036 7.02266C11.0349 7.58527 11.3334 8.34833 11.3334 9.14398ZM9.91675 9.14398C9.91675 9.54181 9.76749 9.92334 9.50182 10.2046C9.23614 10.4859 8.8758 10.644 8.50008 10.644C8.12436 10.644 7.76402 10.4859 7.49835 10.2046C7.23267 9.92334 7.08341 9.54181 7.08341 9.14398C7.08341 8.74616 7.23267 8.36463 7.49835 8.08332C7.76402 7.80202 8.12436 7.64398 8.50008 7.64398C8.8758 7.64398 9.23614 7.80202 9.50182 8.08332C9.76749 8.36463 9.91675 8.74616 9.91675 9.14398Z" fill="#146EF6"/>
<path fill-rule="evenodd" clip-rule="evenodd" d="M8.50007 2.39398C12.4604 2.39398 15.7888 5.26198 16.7323 9.14398C15.7888 13.026 12.4611 15.894 8.50007 15.894C4.53907 15.894 1.21132 13.026 0.267822 9.14398C1.21132 5.26198 4.53907 2.39398 8.50007 2.39398ZM8.50007 14.394C5.32957 14.394 2.64286 12.1875 1.74045 9.14398C2.64286 6.10048 5.32957 3.89398 8.50007 3.89398C11.6706 3.89398 14.3573 6.10048 15.2597 9.14398C14.3573 12.1875 11.6706 14.394 8.50007 14.394Z" fill="#146EF6"/>
</svg>
