<svg width="10" height="15" viewBox="0 0 10 15" fill="none" xmlns="http://www.w3.org/2000/svg">
<path d="M5.05029 0.988434C2.48356 0.988434 0.395142 2.98578 0.395142 5.43992C0.395142 6.60866 0.927865 8.16289 1.97847 10.0596C2.82222 11.5824 3.79835 12.9594 4.30605 13.6446C4.39184 13.7617 4.50401 13.8569 4.63347 13.9225C4.76292 13.9882 4.90602 14.0224 5.05117 14.0224C5.19631 14.0224 5.33941 13.9882 5.46886 13.9225C5.59832 13.8569 5.71049 13.7617 5.79628 13.6446C6.30311 12.9594 7.28011 11.5824 8.12386 10.0596C9.17272 8.16348 9.70544 6.60924 9.70544 5.43992C9.70544 2.98578 7.61703 0.988434 5.05029 0.988434ZM5.05029 7.50565C4.68201 7.50565 4.322 7.39644 4.01579 7.19183C3.70957 6.98723 3.47091 6.69641 3.32997 6.35616C3.18904 6.01592 3.15216 5.64152 3.22401 5.28031C3.29586 4.91911 3.4732 4.58732 3.73362 4.32691C3.99403 4.0665 4.32582 3.88915 4.68702 3.8173C5.04823 3.74546 5.42263 3.78233 5.76287 3.92327C6.10312 4.0642 6.39393 4.30287 6.59854 4.60908C6.80315 4.91529 6.91235 5.2753 6.91235 5.64358C6.91181 6.13727 6.71546 6.61058 6.36637 6.95967C6.01729 7.30875 5.54398 7.50511 5.05029 7.50565Z" fill="#737373"/>
</svg>
