<svg width="90" height="92" viewBox="0 0 90 92" fill="none" xmlns="http://www.w3.org/2000/svg">
<path d="M11.956 12.0895C-1.08201 25.1275 -1.08201 46.2675 11.956 59.3045C24.995 72.3425 46.134 72.3435 59.173 59.3055C72.21 46.2685 72.21 25.1265 59.172 12.0885C46.134 -0.949452 24.994 -0.948453 11.956 12.0895ZM54.622 54.7545C44.097 65.2795 27.032 65.2795 16.507 54.7545C5.98199 44.2295 5.98199 27.1655 16.507 16.6405C27.031 6.11555 44.097 6.11555 54.622 16.6405C65.146 27.1645 65.146 44.2305 54.622 54.7545Z" fill="#5099DA"/>
<path d="M63.5221 58.0371C62.7051 59.0631 61.8281 60.0601 60.8771 61.0101C59.9271 61.9601 58.9311 62.8371 57.9041 63.6551L69.4441 80.3191C69.4441 80.3191 76.9921 89.4801 84.7401 88.9171L85.0231 89.2001L85.3721 88.8521L88.7221 85.5011L89.0691 85.1531L88.7861 84.8701C89.3481 77.1221 80.187 69.5741 80.187 69.5741L63.5221 58.0371Z" fill="#374458"/>
<path d="M57.771 42.4834C57.624 43.9134 57.369 45.3084 57.025 46.6614C58.637 43.8354 59.712 40.6454 60.068 37.2034C61.438 23.9444 51.8 12.0854 38.542 10.7154C36.502 10.5044 34.504 10.5834 32.564 10.8664C48.142 12.7714 59.392 26.8054 57.771 42.4834Z" fill="#5099DA"/>
<path d="M29.6221 23.134C31.1401 22.156 33.0051 21.668 35.2171 21.668C38.1231 21.668 40.5381 22.362 42.4611 23.751C44.3841 25.14 45.3451 27.198 45.3451 29.924C45.3451 31.596 44.9281 33.004 44.0941 34.149C43.6071 34.843 42.6701 35.731 41.2861 36.811L39.9191 37.872C39.1751 38.451 38.6811 39.126 38.4391 39.897C38.2851 40.386 38.2011 41.145 38.1881 42.173H32.9601C33.0371 40 33.2431 38.498 33.5761 37.669C33.9091 36.839 34.7691 35.885 36.1531 34.804L37.5581 33.704C38.0191 33.357 38.3911 32.977 38.6731 32.566C39.1841 31.859 39.4421 31.081 39.4421 30.232C39.4421 29.254 39.1561 28.364 38.5851 27.56C38.0151 26.756 36.9731 26.354 35.4591 26.354C33.9701 26.354 32.9161 26.849 32.2921 27.839C31.6711 28.829 31.3591 29.858 31.3591 30.925H25.7841C25.9381 27.262 27.2171 24.664 29.6221 23.134ZM32.8251 44.817H38.5931V50.393H32.8251V44.817Z" fill="#374458"/>
</svg>
